<svg id="Layer_2" height="512" viewBox="0 0 128.67 288.6" width="512" xmlns="http://www.w3.org/2000/svg" data-name="Layer 2"><g transform="translate(-185.67 -105.7)"><path d="m305.91 143.91c15.85 30.08 4.5 64.88 4.39 65.23l-.19.56-.52-.27c-17.75-9.27-35.55-8.45-50.35-4.26v-.06l.06-1a72.38 72.38 0 0 1 32.19-1.94c0 .16-.05.32-.07.48l1 .15c0-.15.05-.3.06-.45a64.77 64.77 0 0 1 17.07 5.92c1.38-4.58 10.06-36.29-4.5-63.91-9.4-17.78-26.4-30.36-50.55-37.36a109.79 109.79 0 0 1 -4.45 17.74 106.76 106.76 0 0 1 -7.27 16.84c-6.42 11.81-17.19 25.4-34.52 32.29-.16-.27-.24-.43-.25-.45l-.89.45.2.37a65.25 65.25 0 0 1 -20.66 4.1c0 4.33.89 37.47 25 53.51a123.24 123.24 0 0 1 14.89-11.9v.06l.28.45.21.34a118.43 118.43 0 0 0 -15 12.05l-.29.28-.34-.22c-26.48-17.31-25.76-54.69-25.75-55.07v-.47h.47a66.44 66.44 0 0 0 13.89-1.9c.13.22.26.43.38.61l.84-.54s-.09-.15-.21-.32a61 61 0 0 0 9.16-3.24l.25.49.91-.43s-.09-.2-.24-.48a59.58 59.58 0 0 0 5.26-2.8c.1.16.22.33.33.49l.82-.57-.3-.44c11.73-7.29 19.57-17.77 24.66-27.12a111.28 111.28 0 0 0 11.69-34.8l.07-.58.56.16c24.74 7.03 42.14 19.83 51.71 38.01z" fill="#1d1d1b"/><path d="m305 144.36c14.56 27.62 5.88 59.33 4.5 63.91a64.77 64.77 0 0 0 -17.07-5.92c5-33.76-6.68-53-17.4-63.29a60.09 60.09 0 0 0 -24.91-14.31h-.09a109.79 109.79 0 0 0 4.47-17.75c24.15 7 41.15 19.58 50.5 37.36z" fill="#d9ebf4"/><path d="m293 315.19c19.11 45.2 16 57.56 15.81 58.31-3.5 9.68-9.5 15.18-15.84 18.05l-.1-.22s0-.32 0-.82c6-2.82 11.69-8.11 15-17.32 0-.13 2-8.48-7.55-36 .22-.22.42-.44.63-.66l-.74-.68-.26.27c-1-2.76-2.06-5.7-3.26-8.85.2-.31.39-.63.57-.95l-.88-.49c-.05.09-.1.18-.16.27q-1.73-4.47-3.83-9.49a9.58 9.58 0 0 0 .47-1.33z" fill="#1d1d1b"/><path d="m300.27 337.16c9.58 27.55 7.59 35.9 7.55 36-3.33 9.21-9 14.5-15 17.32-.16-3.65-1.12-19.17-6.25-42.77a56.43 56.43 0 0 0 13.7-10.55z" fill="#87725b"/><path d="m300.9 336.5c-.21.22-.41.44-.63.66-.12-.35-.24-.71-.37-1.07l.26-.27z" fill="#1d1d1b"/><path d="m299.9 336.09c.13.36.25.72.37 1.07a56.43 56.43 0 0 1 -13.72 10.58c-.07-.34-.14-.68-.22-1a55.52 55.52 0 0 0 13.57-10.65z" fill="#1d1d1b"/><path d="m296.64 327.24c1.2 3.15 2.29 6.09 3.26 8.85a55.52 55.52 0 0 1 -13.57 10.62c-.6-2.72-1.26-5.56-2-8.5 4.75-2.88 9.51-6.59 12.31-10.97z" fill="#b79f88"/><path d="m297.21 326.29c-.18.32-.37.64-.57.95l-.47-1.17c.06-.09.11-.18.16-.27z" fill="#1d1d1b"/><path d="m296.17 326.07.47 1.17c-2.8 4.38-7.56 8.09-12.28 11-.09-.34-.17-.69-.26-1 4.77-3.03 9.53-6.8 12.07-11.17z" fill="#1d1d1b"/><path d="m293 315.19-.15.06-1-.27a2.41 2.41 0 0 1 -.08.25c-1.2-2.86-2.5-5.84-3.89-9a10.15 10.15 0 0 0 .49-1.13l.17-.08q2.38 5.36 4.46 10.17z" fill="#1d1d1b"/><path d="m292.83 391.33.1.22a31.43 31.43 0 0 1 -13 2.75 30.22 30.22 0 0 1 -6-.59c-4.69-1-7.78-2.86-7.67-4.72v-.09c9.81-39.35-1.42-83-12.57-112.77a340.72 340.72 0 0 0 -26.65-55.35c1.91-1.32 4-2.67 6.18-4 .09.15.18.3.26.45l-5.48 3.12a342.09 342.09 0 0 1 26.66 55.41 275.13 275.13 0 0 1 12.82 44.92l-.51.22.38.93.32-.13c.66 3.55 1.24 7.16 1.72 10.8l-.53.21.36.93.31-.12q.66 5.12 1.05 10.3l-.58.18.34.94.3-.11q.27 3.83.36 7.67l-.51.09.14 1 .4-.07a137 137 0 0 1 -3.76 35.55c0 1.08 2.6 2.77 6.87 3.64a30.89 30.89 0 0 0 17.67-1.71v.4z" fill="#1d1d1b"/><path d="m292.83 391.33h-1s0-.16 0-.4c.33-.13.66-.28 1-.44-.01.51 0 .8 0 .84z" fill="#1d1d1b"/><path d="m291.85 315 1 .27a9.58 9.58 0 0 1 -.47 1.33c-.19-.44-.37-.89-.57-1.35a2.41 2.41 0 0 0 .04-.25z" fill="#1d1d1b"/><path d="m275.05 139.06c10.72 10.24 22.43 29.53 17.4 63.29l-1-.18c4.94-33.29-6.54-52.28-17.08-62.35a59 59 0 0 0 -24.48-14.09l.23-1a60.09 60.09 0 0 1 24.93 14.33z" fill="#d9ebf4"/><path d="m292.34 316.58q2.1 5 3.83 9.49c-2.54 4.37-7.3 8.14-12.07 11.09-.78-3.14-1.62-6.4-2.55-9.76 4.55-2.89 9.03-6.61 10.79-10.82z" fill="#b79f88"/><path d="m292.45 202.35c0 .15 0 .3-.06.45l-1-.15c0-.16.05-.32.07-.48z" fill="#1d1d1b"/><path d="m292.8 390.51c-.33.16-.66.31-1 .44-.1-2.67-.89-18.33-6.17-42.72l.91-.49c5.14 23.6 6.1 39.12 6.26 42.77z" fill="#87725b"/><path d="m291.77 315.23c.2.46.38.91.57 1.35-1.76 4.21-6.24 7.93-10.79 10.82-.09-.34-.19-.69-.28-1 4.73-3.05 9.21-6.91 10.5-11.17z" fill="#1d1d1b"/><path d="m274.39 139.82c10.54 10.07 22 29.06 17.08 62.35a72.38 72.38 0 0 0 -32.19 1.94c-33.92-2.13-49-26.62-51-30.26 17.33-6.89 28.1-20.48 34.52-32.29a106.76 106.76 0 0 0 7.27-16.84h.09l-.23 1a59 59 0 0 1 24.46 14.1z" fill="#a5ccdb"/><path d="m288.54 305.05-.17.08-.94-.35a2.6 2.6 0 0 1 -.1.25c-10.16-22.74-25.27-52.55-47.65-91.33l-5.31 3-.27-.46c2-1.18 4-2.35 6.21-3.47 22.69 39.32 37.98 69.4 48.23 92.28z" fill="#1d1d1b"/><path d="m287.88 306.26c1.39 3.13 2.69 6.11 3.89 9-1.29 4.26-5.81 8.12-10.5 11.13q-1.39-5.06-3-10.41c3.89-2.63 7.78-5.98 9.61-9.72z" fill="#b79f88"/><path d="m287.43 304.78.94.35a10.15 10.15 0 0 1 -.49 1.13c-.18-.41-.36-.82-.55-1.23a2.6 2.6 0 0 0 .1-.25z" fill="#1d1d1b"/><path d="m287.33 305c.19.41.37.82.55 1.23-1.83 3.75-5.72 7.09-9.64 9.69-.1-.34-.21-.68-.32-1 4.01-2.69 7.93-6.13 9.41-9.92z" fill="#1d1d1b"/><path d="m286.33 346.71c.08.35.15.69.22 1l-.91.49c-.07-.34-.14-.69-.22-1 .3-.15.58-.32.91-.49z" fill="#1d1d1b"/><path d="m286.33 346.71c-.3.17-.61.34-.91.49q-.9-4.06-1.95-8.46l.89-.53c.71 2.94 1.37 5.79 1.97 8.5z" fill="#b79f88"/><path d="m285.64 348.23c5.28 24.39 6.07 40 6.17 42.72a30.89 30.89 0 0 1 -17.68 1.78c-4.27-.87-6.87-2.56-6.87-3.64a137 137 0 0 0 3.74-35.55 52.82 52.82 0 0 0 14.64-5.31z" fill="#755b38"/><path d="m285.42 347.2c.08.34.15.69.22 1a52.82 52.82 0 0 1 -14.64 5.34v-1a52 52 0 0 0 14.42-5.34z" fill="#1d1d1b"/><path d="m284.1 337.16c.09.36.17.71.26 1l-.89.53c-.09-.34-.17-.69-.26-1z" fill="#1d1d1b"/><path d="m283.47 338.74q1 4.39 1.95 8.46a52 52 0 0 1 -14.42 5.33q-.09-3.84-.36-7.67a84.2 84.2 0 0 0 12.83-6.12z" fill="#b79f88"/><path d="m284.1 337.16-.89.54q-1.15-4.71-2.53-9.75l.87-.55c.93 3.36 1.77 6.6 2.55 9.76z" fill="#b79f88"/><path d="m283.21 337.7c.09.35.17.7.26 1a84.2 84.2 0 0 1 -12.84 6.12c0-.35 0-.69-.07-1a87 87 0 0 0 12.65-6.12z" fill="#1d1d1b"/><path d="m283.21 337.7a87 87 0 0 1 -12.65 6.12q-.39-5.19-1.05-10.3a79.44 79.44 0 0 0 11.17-5.52q1.32 5 2.53 9.7z" fill="#b79f88"/><path d="m281.27 326.36c.09.35.19.7.28 1l-.87.55c-.1-.34-.19-.69-.29-1z" fill="#1d1d1b"/><path d="m280.68 328a79.44 79.44 0 0 1 -11.17 5.57c0-.34-.09-.68-.14-1a81 81 0 0 0 11-5.59c.12.28.21.63.31 1.02z" fill="#1d1d1b"/><path d="m281.27 326.36-.88.55q-1.39-5-3-10.39l.87-.57q1.62 5.35 3.01 10.41z" fill="#b79f88"/><path d="m280.39 326.91a81 81 0 0 1 -11 5.59c-.48-3.64-1.06-7.25-1.72-10.8a72.27 72.27 0 0 0 9.72-5.18q1.61 5.34 3 10.39z" fill="#b79f88"/><path d="m287.33 305c-1.48 3.76-5.4 7.2-9.41 9.9a464.2 464.2 0 0 0 -43.55-98.22l5.31-3c22.38 38.8 37.49 68.61 47.65 91.32z" fill="#87725b"/><path d="m277.92 314.93c.11.34.22.68.32 1l-.87.57c-.1-.34-.2-.68-.31-1 .29-.19.58-.37.86-.57z" fill="#1d1d1b"/><path d="m277.37 316.52a72.27 72.27 0 0 1 -9.72 5.18c-.05-.34-.12-.68-.19-1a72.07 72.07 0 0 0 9.61-5.18c.1.32.2.66.3 1z" fill="#1d1d1b"/><path d="m277.92 314.93c-.28.2-.57.38-.86.57a462.91 462.91 0 0 0 -43.56-98.29l.87-.5a464.2 464.2 0 0 1 43.55 98.22z" fill="#87725b"/><path d="m277.06 315.5a72.07 72.07 0 0 1 -9.61 5.18 275.13 275.13 0 0 0 -12.82-44.92 342.09 342.09 0 0 0 -26.63-55.41l5.53-3.14a462.91 462.91 0 0 1 43.53 98.29z" fill="#755b38"/><path d="m271 352.53v1l-.4.07-.14-1z" fill="#1d1d1b"/><path d="m270.56 343.82c0 .35.05.69.07 1l-.3.11-.33-.93z" fill="#1d1d1b"/><path d="m269.37 332.5c.05.34.1.68.14 1l-.31.12-.36-.93z" fill="#1d1d1b"/><path d="m267.45 320.68c.07.34.14.68.19 1l-.32.13-.38-.93z" fill="#1d1d1b"/><path d="m259.28 204.11-.06 1c-.88-.06-1.75-.13-2.6-.21.87-.28 1.76-.54 2.66-.79z" fill="#1d1d1b"/><path d="m259.22 205.11v.06a97.9 97.9 0 0 0 -16.59 6.42c-.79.39-1.57.78-2.34 1.19l-.25-.43-6.18 3.51-.86.51-6.43 3.63v-.06a125.88 125.88 0 0 1 15.66-9.23 99.92 99.92 0 0 1 14.43-5.8c.81.09 1.68.14 2.56.2z" fill="#1d1d1b"/><path d="m259.28 204.11c-.9.25-1.79.51-2.66.79-32.92-3.24-47.46-27.37-49.3-30.68l.94-.37c2.05 3.64 17.1 28.15 51.02 30.26z" fill="#a5ccdb"/><path d="m256.62 204.9a99.92 99.92 0 0 0 -14.43 5.8 125.88 125.88 0 0 0 -15.66 9.23 123.24 123.24 0 0 0 -14.89 11.9c-24.09-16-25-49.18-25-53.51a65.25 65.25 0 0 0 20.66-4.1c1.86 3.31 16.4 27.44 49.32 30.68z" fill="#9ac5db"/><g fill="#1d1d1b"><path d="m240.3 212.77c-2.17 1.12-4.24 2.29-6.21 3.47l-.23-.4 6.18-3.51z"/><path d="m234.37 216.71-.87.5c-.08-.15-.17-.3-.26-.45l.86-.51z"/><path d="m233.87 215.85.23.4-.86.51-.24-.42z"/><path d="m233.87 215.85-.87.49.86-.51z"/><path d="m233 216.34.24.42c-2.2 1.35-4.27 2.7-6.18 4l-.21-.34-.28-.45z"/><path d="m217.24 168.2.3.44-.82.57c-.11-.16-.23-.33-.33-.49z"/><path d="m217.24 168.2-.85.52a87.26 87.26 0 0 1 -9.11-16.9 16.28 16.28 0 0 0 -8.41 3.61l-.37-.4-.73.68.34.38a22.46 22.46 0 0 0 -5.72 8.73c2.93 1.69 7.61 8.73 8.66 10.36l-1 .25c-1.92-2.93-6.23-9-8.45-9.9l-.41-.17.12-.43c0-.13 3.81-12.85 16.26-14.15h.39l.13.37a84.79 84.79 0 0 0 9.15 17.05z"/></g><path d="m216.39 168.72a59.58 59.58 0 0 1 -5.26 2.8c-.87-1.63-4.12-7.23-12.26-16.09a16.28 16.28 0 0 1 8.41-3.61 87.26 87.26 0 0 0 9.11 16.9z" fill="#87725b"/><path d="m211.37 172-.91.43-.25-.49.92-.42c.15.28.22.48.24.48z" fill="#1d1d1b"/><path d="m211.13 171.52-.92.42c-.88-1.62-4.16-7.22-12.1-15.85.24-.23.5-.45.76-.66 8.13 8.86 11.39 14.46 12.26 16.09z" fill="#87725b"/><path d="m208.26 173.85-.94.37-.2-.37.89-.45s.09.18.25.45z" fill="#1d1d1b"/><path d="m198.11 156.09c7.94 8.63 11.22 14.23 12.1 15.85a61 61 0 0 1 -9.16 3.24c-1.05-1.63-5.73-8.67-8.66-10.36a22.46 22.46 0 0 1 5.72-8.73z" fill="#755b38"/><path d="m201.26 175.5-.84.54c-.12-.18-.25-.39-.38-.61l1-.25c.13.17.2.29.22.32z" fill="#1d1d1b"/><path d="m198.5 155 .37.4c-.26.21-.52.43-.76.66l-.34-.38z" fill="#1d1d1b"/></g></svg>