<svg id="Layer_2" height="512" viewBox="0 0 294.97 343.95" width="512" xmlns="http://www.w3.org/2000/svg" data-name="Layer 2"><path d="m407.6 230.79-28.9 33.78-5.94-14.68.58-.13.1-.12.2-.25 5.36 13.28 26.6-31.07-40.75-4.07 5.67 11.81-.25-.05h-.11l-.7.18-6.28-13.08z" fill="#1d1d1b" transform="translate(-112.63 -106.34)"/><path d="m405.6 231.6-26.6 31.07-5.37-13.28c.7-.88 2.86-3.89 2-6.54-.57-1.72-2.29-2.89-5.08-3.51l-5.67-11.81z" fill="#93918a" transform="translate(-112.63 -106.34)"/><path d="m375.6 242.85c.9 2.65-1.26 5.66-2 6.54l-.11-.27-.93.37.16.4-14.84 3.28-.34-.59-.18-.31 15.39-3.41c.5-.62 2.63-3.44 1.86-5.69-.47-1.38-2-2.35-4.46-2.88l-43.92 11.48v-.07l28-7.79v-.5l15.18-4 .26.55.9-.43-.1-.22c2.84.69 4.53 1.82 5.13 3.54z" fill="#1d1d1b" transform="translate(-112.63 -106.34)"/><path d="m374.65 243.17c.77 2.25-1.36 5.07-1.86 5.69l-15.39 3.41-.35.1h-.07l-198.9 50.78-12.54 3.2-10.47 2.65a11.31 11.31 0 0 0 .88-3.27 5.16 5.16 0 0 0 -2.83-4.11l22.58-5.79 101.58-26 69-18 43.92-11.48c2.48.47 3.98 1.44 4.45 2.82z" fill="#a08e42" transform="translate(-112.63 -106.34)"/><path d="m373.53 249.12.11.27-.2.25-.1.12-.58.13-.16-.4z" fill="#1d1d1b" transform="translate(-112.63 -106.34)"/><path d="m370.52 239.34.1.22-.9.43-.26-.55.7-.18h.11z" fill="#1d1d1b" transform="translate(-112.63 -106.34)"/><path d="m366 281.32c1.21 15.33-2.34 37.83-26.14 57.95-12 10.17-34.25 55.43-35.72 58.45a1.47 1.47 0 0 0 0-.17l-.32-1.37c3.86-7.85 23.88-47.91 35.44-57.68 23.46-19.83 27-42 25.78-57.06a70.88 70.88 0 0 0 -1.43-9.59l.31.07.25-1 .26-.06a73 73 0 0 1 1.57 10.46z" fill="#1d1d1b" transform="translate(-112.63 -106.34)"/><path d="m365 281.44c1.19 15.09-2.32 37.23-25.78 57.06-11.56 9.77-31.58 49.83-35.44 57.68v-.16l-.58 1.43-2.6 6.32c-6.78-.68-10.33-2.58-12.18-4.3a5.94 5.94 0 0 1 -2-3.28l.7-6.54a438.63 438.63 0 0 1 34.88-63.46c.17-.25 14.3-21.26 11.51-50.39 2.72-.86 20.31-6.23 30.07-3.95a70.88 70.88 0 0 1 1.42 9.59z" fill="#725d22" transform="translate(-112.63 -106.34)"/><path d="m364.4 270.89-.26.06c-.26-.07-.53-.13-.8-.18a76.3 76.3 0 0 0 -3.28-10.54h.32l.05-1h-.79a56.7 56.7 0 0 0 -2.73-5.79l.35-.09.66-.15a73.28 73.28 0 0 1 6.48 17.69z" fill="#1d1d1b" transform="translate(-112.63 -106.34)"/><path d="m364.14 271-.25 1-.31-.07q-.1-.56-.24-1.08c.27-.03.54.03.8.15z" fill="#1d1d1b" transform="translate(-112.63 -106.34)"/><path d="m363.34 270.77q.14.53.24 1.08c-9.76-2.28-27.35 3.09-30.07 3.95 0-.33-.06-.67-.1-1 3.33-1.08 19.93-6.08 29.93-4.03z" fill="#1d1d1b" transform="translate(-112.63 -106.34)"/><path d="m360.06 260.23a76.3 76.3 0 0 1 3.28 10.54c-10-2-26.6 3-29.93 4-.25-2.28-.6-4.61-1.08-7 2.04-1.17 14.46-8.08 27.73-7.54z" fill="#ccb26e" transform="translate(-112.63 -106.34)"/><path d="m360.43 259.24-.05 1h-.32q-.21-.53-.42-1z" fill="#1d1d1b" transform="translate(-112.63 -106.34)"/><path d="m359.64 259.21q.21.5.42 1c-13.27-.54-25.69 6.37-27.73 7.57-.06-.34-.13-.69-.21-1 2.79-1.61 14.72-7.91 27.52-7.57z" fill="#1d1d1b" transform="translate(-112.63 -106.34)"/><path d="m359.64 259.21c-12.8-.34-24.73 6-27.52 7.55-.43-2-.94-4-1.55-6.11l26.34-7.23a56.7 56.7 0 0 1 2.73 5.79z" fill="#ccb26e" transform="translate(-112.63 -106.34)"/><path d="m357.92 253.17-.66.15-.35.09-27.45 7-.14-.47 27.68-7.57h.07l.36-.08.18.31z" fill="#1d1d1b" transform="translate(-112.63 -106.34)"/><path d="m244.76 145.91.01.02-.36.08z" fill="#1d1d1b"/><path d="m244.33 146.03-27.64 7.58.14.47-158.98 40.59.09-.25-.95-.33-.31.88-10.35 2.64.09-.24-.94-.35-.05-.21z" fill="#1d1d1b"/><g transform="translate(-112.63 -106.34)"><path d="m356.91 253.41-26.34 7.23c.61 2.07 1.12 4.1 1.55 6.11l-.61.36.53.85.29-.17c.48 2.38.83 4.71 1.08 7l-.57.18.31.95.36-.12c2.79 29.13-11.34 50.14-11.51 50.39a438.63 438.63 0 0 0 -34.92 63.45l.07-.62h-.53-.34a438.69 438.69 0 0 1 34.9-63.36c.19-.29 19.29-28.7 8.29-65.19z" fill="#1d1d1b"/><path d="m354.28 243.53v.38l-28 7.79-.13-.49c0-.14-.07-.28-.11-.41l1-.25 27.3-7.14z" fill="#1d1d1b"/><path d="m354.28 243.41-27.28 7.14v-.08l26.32-7.32c0-.5-.06-1.48-.2-2.85h.47v-1h-.54a73.47 73.47 0 0 0 -1.83-9.92h.4v-1h-.64a72.49 72.49 0 0 0 -5-13.45c-6.73-13.55-21.11-30.76-51.43-35.73-14.93-2.45-52.7-26.57-60-31.31l-.43-1.34a1 1 0 0 1 -.05-.16c2.87 1.87 45.12 29.28 60.67 31.82 30.75 5.05 45.34 22.53 52.17 36.32a73.83 73.83 0 0 1 7.37 28.88z" fill="#1d1d1b"/><path d="m353.52 239.28v1h-.47c0-.31-.06-.65-.1-1z" fill="#1d1d1b"/><path d="m353.28 243.15-26.28 7.32c-.08-.32-.17-.64-.25-.95 1.92-1.3 13.34-8.68 26.37-9.22.1 1.37.14 2.35.16 2.85z" fill="#ccb26e"/><path d="m353 239.3c0 .35.07.69.1 1-13 .54-24.45 7.92-26.37 9.22-.09-.34-.19-.68-.28-1 2.55-1.75 13.79-8.67 26.55-9.22z" fill="#1d1d1b"/><path d="m351.15 229.38a73.47 73.47 0 0 1 1.85 9.92c-12.74.55-23.94 7.47-26.55 9.21a80.53 80.53 0 0 0 -3.16-9c2.81-1.43 20.01-9.75 27.86-10.13z" fill="#ccb26e"/><path d="m351.54 228.36v1h-.4c-.08-.32-.16-.65-.25-1z" fill="#1d1d1b"/><path d="m350.9 228.39c.09.34.17.67.25 1-7.85.38-25 8.7-27.88 10.09l-.39-.92c3.06-1.56 19.83-9.65 28.02-10.17z" fill="#1d1d1b"/><path d="m345.85 214.94a72.49 72.49 0 0 1 5 13.45c-8.19.52-25 8.65-28 10.16-12.24-28.33-36.64-39.81-36.91-39.93a437.51 437.51 0 0 1 -62.54-36.53l-3.9-5.18c0-.05-2.73-5.7 8.24-13.86l5.47 4.09 1.23.93v-.16c7.32 4.74 45.09 28.86 60 31.31 30.3 4.96 44.68 22.17 51.41 35.72z" fill="#725d22"/><path d="m333.41 274.79c0 .34.07.68.1 1l-.36.12-.31-.95z" fill="#1d1d1b"/><path d="m332.12 266.76c.08.35.15.7.21 1l-.33.24-.53-.85z" fill="#1d1d1b"/><path d="m327 250.47v.08l-1 .25c-9.41-36.66-40.15-51.13-40.46-51.27a439.26 439.26 0 0 1 -62.49-36.47l.29-.18.45-.29-.37-.5a437.51 437.51 0 0 0 62.58 36.53c.27.12 24.67 11.6 36.91 39.93l-.46.23.45.89.4-.2a80.53 80.53 0 0 1 3.16 9l-.58.39.58.81.28-.19c.05.35.14.67.26.99z" fill="#1d1d1b"/><path d="m326.43 248.51c.09.33.19.67.28 1l-.28.19-.58-.81z" fill="#1d1d1b"/><path d="m326.25 251.7v.07l-69 18-101.58 26-.06-.21.68-.74-.2-.18 10.17-2.61.67.62.67-.73-.2-.18 89.6-23 69-18c0 .13.08.27.11.41z" fill="#1d1d1b"/><path d="m322.88 238.55.39.92-.4.2-.45-.89z" fill="#1d1d1b"/><path d="m304.15 397.72c.28 1.31 1.86 9.23-.58 12.91a4.07 4.07 0 0 1 -2.19 1.69c.3 1 .78 3.19-.28 4.72a3.81 3.81 0 0 1 -2.89 1.51 8.94 8.94 0 0 1 2.15 5.85 6.36 6.36 0 0 1 -2.92 4.65l-.11.08h-.14-.7v-.5l-1 .07v.46h-.62c-3.33 0-9.57-.44-14.59-3.34 0-.53 0-.84 0-.87l-1-.05v.29a14.44 14.44 0 0 1 -4.18-4.17 11.29 11.29 0 0 1 -.86-6h.06l.62-.79-.42-.33a7 7 0 0 1 2.48-3.46c-.42-1.33-1.71-6-.3-8.55a3.11 3.11 0 0 1 1.71-1.49c-.1-1.49-.23-6.47 2.48-9.4a7 7 0 0 1 5.4-2.15l-.14.31.92.39-.7 6.54a5.94 5.94 0 0 0 2 3.28c1.85 1.72 5.4 3.62 12.18 4.3l2.6-6.32.9.43zm-1.42 12.35c1.74-2.62 1.16-8 .71-10.66l-2.22 5.42h-.37c-14.9-1.38-15.45-8.34-15.46-8.64l.61-6.19a6 6 0 0 0 -4.42 1.82c-2.61 2.82-2.27 8.06-2.19 8.91l-.09-.12-.8.6.21.28a2.14 2.14 0 0 0 -1.19 1c-1.32 2.4.28 7.45.47 8v-.07l-.81.58.31.4c-4.16 3.34-1.61 8.9-1.49 9.14 5.4 8.33 19.44 7.66 21 7.56a5.35 5.35 0 0 0 2.39-3.84c.2-2.55-1.74-5-2.36-5.67l.29-.08-.28-1-.83.22-.27-.27h1.26c1.52 0 2.56-.33 3.1-1.12.84-1.2.38-3.1.13-3.92l.45-.1-.25-1a3 3 0 0 0 2.1-1.25z" fill="#1d1d1b"/><path d="m304.11 397.55a1.47 1.47 0 0 1 0 .17l-.08.16-.9-.43.62-1.27z" fill="#1d1d1b"/><path d="m303.75 396v.16l-.62 1.27z" fill="#1d1d1b"/><path d="m303.44 399.41c.45 2.7 1 8-.71 10.66a3 3 0 0 1 -2.09 1.4l-.57.1c-10.18 2.08-19.59-9.57-20.61-10.89-.08-.85-.42-6.09 2.19-8.91a6 6 0 0 1 4.35-1.77l-.65 6.17c0 .3.56 7.26 15.46 8.64h.37z" fill="#ccb26e"/><path d="m300.6 411.48.25 1-.45.1c-.08-.25-.14-.39-.14-.4l-.22-.54z" fill="#1d1d1b"/><path d="m300.6 411.48-.56.13z" fill="#1d1d1b"/><path d="m300.4 412.55c.25.82.71 2.72-.13 3.92-.54.79-1.58 1.16-3.1 1.12h-1.26l.27.27c-10.49 2.43-17.49-6.42-18.15-7.28-.19-.59-1.79-5.64-.47-8a2.14 2.14 0 0 1 1.19-1c1.43 1.83 9.34 11.38 18.76 11.38a13.73 13.73 0 0 0 2.89-.41z" fill="#ccb26e"/><path d="m300.26 412.15s.06.15.14.4a13.73 13.73 0 0 1 -2.89.31c-9.42 0-17.33-9.55-18.76-11.38a1.32 1.32 0 0 1 .3-.09l.44-.1-.05-.45a.83.83 0 0 0 0-.12c1 1.32 10.43 13 20.61 10.89z" fill="#1d1d1b"/><path d="m297 418.65c.62.71 2.56 3.12 2.36 5.67a5.35 5.35 0 0 1 -2.39 3.84c-1.54.1-15.58.77-21-7.56-.12-.24-2.67-5.8 1.49-9.14 1.33 1.64 6.87 7.79 15.06 7.79a17.09 17.09 0 0 0 4.48-.6z" fill="#ccb26e"/><path d="m298.84 440.49c.47 3.62-.15 6.31-1.84 8a6.92 6.92 0 0 1 -4.87 1.82c-.48 0-.79 0-.84 0-9.77-.53-11.65-14.23-12-21.25l.13.1.64-.77-.82-.68c0-1.13 0-2 0-2.4.33.23.66.43 1 .63 0 4.28.48 22.79 11.11 23.37a6.37 6.37 0 0 0 4.91-1.5c1.45-1.43 2-3.8 1.56-7-.29-.59-1.87-4-2.37-11.5h1c.54 7.85 2.27 11.11 2.29 11.14z" fill="#1d1d1b"/><path d="m297.86 440.71c.41 3.24-.11 5.61-1.56 7a6.37 6.37 0 0 1 -4.91 1.5c-10.63-.58-11.13-19.09-11.11-23.37 5 2.9 11.26 3.34 14.59 3.34h.62c.51 7.5 2.08 10.94 2.37 11.53z" fill="#725d22"/><path d="m297 417.61.28 1-.29.08-.2-.21-.62-.61z" fill="#1d1d1b"/><path d="m296.8 418.44.2.21a17.09 17.09 0 0 1 -4.46.6c-8.19 0-13.73-6.15-15.06-7.79l.38-.28.31-.22-.12-.35v-.06c.66.86 7.66 9.71 18.15 7.28z" fill="#1d1d1b"/><path d="m296.46 428.68v.5c-.26 0-.6 0-1 0v-.46z" fill="#1d1d1b"/><path d="m287.15 389-.07.62-.92-.39.14-.31h.34z" fill="#1d1d1b"/><path d="m279.3 425 1 .05s0 .34 0 .87c-.33-.2-.66-.4-1-.63-.01-.19 0-.29 0-.29z" fill="#1d1d1b"/><path d="m280.1 428.33-.64.77-.13-.1c0-.48 0-.93-.05-1.34z" fill="#1d1d1b"/><path d="m279.44 400.84.05.45-.44.1a1.32 1.32 0 0 0 -.3.09l-.21-.28.8-.6.09.12a.83.83 0 0 1 .01.12z" fill="#1d1d1b"/><path d="m279.33 429-120.8-100a6.49 6.49 0 0 0 .86-.58l119.89 99.27c.01.37.03.82.05 1.31z" fill="#1d1d1b"/><path d="m279.29 425.25v2.4l-119.9-99.27a10.35 10.35 0 0 0 2.21-2.33l112.65 89.07a11.29 11.29 0 0 0 .86 6 14.44 14.44 0 0 0 4.18 4.13z" fill="#efdaac"/><path d="m278.05 410.61.12.35-.31.22-.38.28-.31-.4.81-.58v.07z" fill="#1d1d1b"/><path d="m274.93 414.37-.62.79h-.06a8.47 8.47 0 0 1 .26-1.08z" fill="#1d1d1b"/><path d="m162.07 325.14 112.44 88.86a8.47 8.47 0 0 0 -.26 1.08l-112.65-89.03.31-.45z" fill="#1d1d1b"/><path d="m234.4 147.9v.16l-1.23-.93z" fill="#1d1d1b"/><path d="m234 146.56.43 1.34-1.18-.77.55-.83.15.1a1 1 0 0 0 .05.16z" fill="#1d1d1b"/><path d="m233.92 146.4-.15-.1-.55.83-5.47-4.13c-11 8.16-8.27 13.81-8.24 13.86l3.9 5.18-.59.81.27.19a7.43 7.43 0 0 1 -3.9 1.19 6.42 6.42 0 0 1 -1.83-.26 8.82 8.82 0 0 1 -3.55-2.16l.32-.57-.87-.49-.18.33a18.2 18.2 0 0 1 -2.67-3.9 2.81 2.81 0 0 1 -1.19 0l.19-.34-.88-.48-.27.48h-.09c-2.52-1.47-3.8-6.15-4.13-7.5-6.22-.72-7-7.91-7-8a14.55 14.55 0 0 1 1.45-5.78 2.32 2.32 0 0 0 .15.23l.84-.55s-.18-.28-.45-.73c3-5.42 8.64-9.14 11.33-10.68.06.14.14.28.21.42l.89-.46c-.08-.15-.16-.3-.23-.45l.62-.32.13-.06h.13a6.32 6.32 0 0 1 4.89 2.5 8.88 8.88 0 0 1 1.16 6.12 3.8 3.8 0 0 1 3.25-.19c1.7.77 2.41 2.89 2.67 3.91a4 4 0 0 1 2.75.33c3.95 1.89 6.66 9.53 7.09 10.77zm-6.17-4.61 4.69 3.52c-1-2.55-3.24-7.44-6.07-8.79a3.09 3.09 0 0 0 -2.52-.12l-.28-1a3.81 3.81 0 0 0 -.44.15c-.2-.83-.78-2.71-2.12-3.31-.87-.39-2-.18-3.24.64l-1.06.67.09-.36.83-.25-.26-1c-.1 0-.2 0-.3.09.18-.94.61-4-.88-6.09a5.33 5.33 0 0 0 -4-2.06c-1.38.71-13.77 7.34-14.13 17.33 0 .19.69 6.28 6 7 0 .31-.06.49-.06.51l1 .08a.1.1 0 0 1 0 0c.18.79 1.39 5.75 3.72 7.1a2.13 2.13 0 0 0 1.55.26v.36l1 .1s0 0 0-.13c.4.83 2.79 5.43 6.45 6.5a6 6 0 0 0 4.73-.7l-3.69-4.9c-.18-.33-3.28-6.58 8.79-15.42z" fill="#1d1d1b"/><path d="m232.44 145.31-4.69-3.52-.3.22c-12.07 8.84-9 15.09-8.79 15.42l3.69 4.9a6 6 0 0 1 -4.73.7c-3.66-1.07-6.05-5.67-6.45-6.5.19-1.56 2.25-16.49 12.1-19.93l.54-.21a3.09 3.09 0 0 1 2.52.12c2.87 1.36 5.11 6.25 6.11 8.8z" fill="#ccb26e"/><path d="m223.81 136.41-.54.21a3.86 3.86 0 0 1 .54-.21z" fill="#1d1d1b"/><path d="m223.53 135.45.28 1a3.86 3.86 0 0 0 -.54.19l-.09-.59s0-.16-.09-.41a3.81 3.81 0 0 1 .44-.19z" fill="#1d1d1b"/><path d="m223.43 162.09.37.5-.45.29-.29.18-.27-.19.59-.81z" fill="#1d1d1b"/><path d="m223.18 136 .09.59c-9.85 3.44-11.91 18.37-12.1 19.93l-.06-.13-.19-.4-.42.13a1.63 1.63 0 0 1 -.3.07c.32-2.55 2.58-17.14 12.89-20.6.06.26.09.41.09.41z" fill="#1d1d1b"/><path d="m221 132.29c1.34.6 1.92 2.48 2.12 3.31-10.31 3.46-12.57 18.05-12.89 20.6a2.13 2.13 0 0 1 -1.55-.26c-2.33-1.35-3.54-6.31-3.72-7.1.08-.84 1.45-12.26 11.83-15.59l-.09.36 1.06-.67c1.24-.83 2.34-1.04 3.24-.65z" fill="#ccb26e"/><path d="m217.33 132 .26 1-.83.25.21-.85s0-.11.06-.28.2-.07.3-.12z" fill="#1d1d1b"/><path d="m216.15 126c1.49 2.08 1.06 5.15.88 6.09-10.55 3-12.69 13.71-13.05 16.18-5.28-.72-5.95-6.81-6-7 .36-10 12.75-16.62 14.13-17.33a5.33 5.33 0 0 1 4.04 2.06z" fill="#ccb26e"/><path d="m217 132.11c0 .17-.06.27-.06.28l-.21.85c-10.35 3.33-11.73 14.76-11.8 15.59v-.1l-.08-.36h-.38l-.47-.05c.34-2.5 2.48-13.21 13-16.21z" fill="#1d1d1b"/><path d="m214.1 161.26-.32.57a10.05 10.05 0 0 1 -.73-.73l.18-.33z" fill="#1d1d1b"/><path d="m213.78 161.83-63.69 114-.76-.7 63.72-114a10.05 10.05 0 0 0 .73.7z" fill="#1d1d1b"/><path d="m210.38 157.2a18.2 18.2 0 0 0 2.67 3.9l-63.72 114-.66-.61a11.52 11.52 0 0 0 -3.69-1.72l64.21-115.57a2.81 2.81 0 0 0 1.19 0z" fill="#efdaac"/><path d="m211.2 123.32c.07.15.15.3.23.45l-.89.46c-.07-.14-.15-.28-.21-.42z" fill="#1d1d1b"/><path d="m211.17 156.53v.13l-1-.1c0-.05 0-.17 0-.36a1.63 1.63 0 0 0 .3-.07l.42-.13.19.4z" fill="#1d1d1b"/><path d="m211.2 123.32-.87.49c-3.41-6.67-3.83-10.42-3.88-11.08-1.31-3-3-4.76-5-5.25a6.33 6.33 0 0 0 -4.94 1.22c-8.86 6 .24 22.15 2.45 25.79q-.28.51-.54 1c-1.52-2.38-12.76-20.73-2.5-27.65a7.23 7.23 0 0 1 5.77-1.38c2.32.57 4.23 2.56 5.68 5.91v.17s.28 3.81 3.83 10.78z" fill="#1d1d1b"/><path d="m209.38 156.85-.19.34a2.91 2.91 0 0 1 -1-.34l.27-.48z" fill="#1d1d1b"/><path d="m209.19 157.19-64.19 115.57a7.87 7.87 0 0 0 -1-.19l64.29-115.72a2.91 2.91 0 0 0 .9.34z" fill="#1d1d1b"/><path d="m206.45 112.73c.05.66.47 4.41 3.88 11.08-2.69 1.54-8.32 5.26-11.33 10.68-2.21-3.64-11.31-19.81-2.45-25.79a6.33 6.33 0 0 1 4.94-1.22c1.98.52 3.65 2.26 4.96 5.25z" fill="#725d22"/><path d="m204.93 148.83a.1.1 0 0 0 0 0l-1-.08s0-.2.06-.51l.47.05h.38l.08.36z" fill="#1d1d1b"/><path d="m199.45 135.22-.84.55a2.32 2.32 0 0 1 -.15-.23q.25-.54.54-1c.27.4.44.66.45.68z" fill="#1d1d1b"/></g><path d="m57.94 194.42-.09.25-1.17.3.31-.88z" fill="#1d1d1b"/><path d="m170.48 301-8.41 24.13-.27-.21-.62.79.42.33a10.35 10.35 0 0 1 -2.21 2.33l-.5-.41-.63.77.27.22a8.67 8.67 0 0 1 -4.53 1.22 11.74 11.74 0 0 1 -4.43-.91c.08-.11.17-.22.25-.34l.2-.55c1.53.66 7.19 2.59 11-3.28l8.27-23.79z" fill="#1d1d1b" transform="translate(-112.63 -106.34)"/><path d="m169.31 301.31-8.31 23.79c-3.83 5.87-9.49 3.94-11 3.28l9-24.38z" fill="#b22424" transform="translate(-112.63 -106.34)"/><path d="m55 185.66-.67.73-.67-.62 1.14-.29z" fill="#1d1d1b"/><path d="m150.09 275.79 17.34 16-1.14.29-18.24-16.85a8 8 0 0 0 -6.4-1.57 8.45 8.45 0 0 0 -4.71 3.55l-.3-.28-.12-.08-.42-.2a9.41 9.41 0 0 1 5.31-4 7.16 7.16 0 0 1 2.53-.15l-.16.3.87.49.33-.6a11.52 11.52 0 0 1 3.69 1.72l.66.61-.31.55.88.49z" fill="#1d1d1b" transform="translate(-112.63 -106.34)"/><path d="m166.29 292.11-10.17 2.61-19.18-17.48a8.45 8.45 0 0 1 4.71-3.55 8 8 0 0 1 6.4 1.57z" fill="#b22424" transform="translate(-112.63 -106.34)"/><path d="m162.07 325.14-.16.46-.31.45-.42-.33.62-.79z" fill="#1d1d1b" transform="translate(-112.63 -106.34)"/><path d="m158.89 328 .5.41a6.49 6.49 0 0 1 -.86.58l-.27-.22z" fill="#1d1d1b" transform="translate(-112.63 -106.34)"/><path d="m46.42 197.37-.09.24-1.18.3.33-.89z" fill="#1d1d1b"/><path d="m159 304-9 24.38-.38-.18-.47.89s.15.08.4.18a9 9 0 0 1 -6 3.94 7.23 7.23 0 0 1 -1 .07 10.21 10.21 0 0 1 -5.67-1.93l.31-.32.21-.54a8.92 8.92 0 0 0 6.06 1.73c2.08-.28 3.93-1.56 5.52-3.81l8.82-24.16z" fill="#1d1d1b" transform="translate(-112.63 -106.34)"/><path d="m45.43 196.81.05.21-.33.89-11.37 2.91.09-.24-.93-.36-.05-.21z" fill="#1d1d1b"/><path d="m157.78 304.25-8.78 24.16c-1.59 2.25-3.44 3.53-5.52 3.81a8.92 8.92 0 0 1 -6.06-1.73l9-23.32z" fill="#b22424" transform="translate(-112.63 -106.34)"/><path d="m43.69 188.56-.68.74-.68-.62 1.16-.3z" fill="#1d1d1b"/><path d="m136.94 277.24 19.18 17.48-1.12.28-19-17.26c-.58-.27-5.17-2.34-8.12-.77a5.16 5.16 0 0 0 -2.47 4.08l-.19-.18-.16-.09-.57-.22a6 6 0 0 1 2.92-4.48c3.06-1.62 7.32 0 8.67.6l-.24.4.88.48z" fill="#1d1d1b" transform="translate(-112.63 -106.34)"/><path d="m155.64 295.64.06.21-22.58 5.79a8.81 8.81 0 0 0 -1.23-.61h-.13-.14a3.72 3.72 0 0 0 -.88.31l-18.11-15.78v-.26a6.94 6.94 0 0 1 3-4.88c2.15-1.29 5.11-1.24 8.81.17a6 6 0 0 0 -.11.61l1 .13a2.17 2.17 0 0 1 0-.25l18 16.93 11.67-3.01zm-23.8 5.36 10.42-2.68-17.64-16.6c-3.61-1.46-6.44-1.6-8.39-.43a5.83 5.83 0 0 0 -2.54 3.89z" fill="#1d1d1b" transform="translate(-112.63 -106.34)"/><path d="m155 295-11.56 3-18-16.93a5.16 5.16 0 0 1 2.46-4.07c2.95-1.57 7.54.5 8.12.77z" fill="#b22424" transform="translate(-112.63 -106.34)"/><path d="m37.46 169.45-.19.34-.88-.49.31-.55z" fill="#1d1d1b"/><path d="m150 328.38-.2.55c-.08.12-.17.23-.25.34-.25-.1-.39-.18-.4-.18l.47-.89z" fill="#1d1d1b" transform="translate(-112.63 -106.34)"/><path d="m33.87 200.58-.09.24-1.19.3.35-.9z" fill="#1d1d1b"/><path d="m146.41 307.16-9 23.32a1.78 1.78 0 0 1 -.25-.18l-.64.77.37.28c-2.17 2.21-4.34 3.33-6.45 3.33h-.44a6.72 6.72 0 0 1 -4.67-2.59l-.16-.22 8.54-21.43a.6.6 0 0 0 .19-.08l.84-.22.14.06-8.57 21.52a5.73 5.73 0 0 0 3.77 2c2 .13 4.12-1 6.29-3.25l8.84-23z" fill="#1d1d1b" transform="translate(-112.63 -106.34)"/><path d="m145.52 306.35v.21l-.35.9-10.47 2.67-.35-.13a3.43 3.43 0 0 0 .67-1z" fill="#1d1d1b" transform="translate(-112.63 -106.34)"/><path d="m145.22 307.46-8.84 23c-2.17 2.28-4.29 3.38-6.29 3.25a5.73 5.73 0 0 1 -3.77-2l8.57-21.52-.14-.06z" fill="#b22424" transform="translate(-112.63 -106.34)"/><path d="m145 272.76-.33.6-.87-.49.16-.3a7.87 7.87 0 0 1 1.04.19z" fill="#1d1d1b" transform="translate(-112.63 -106.34)"/><path d="m142.26 298.27-10.42 2.73-18.15-15.82a5.83 5.83 0 0 1 2.54-3.89c2-1.17 4.78-1 8.39.43z" fill="#b22424" transform="translate(-112.63 -106.34)"/><path d="m137.38 330.48-.21.54-.31.32-.37-.28.64-.77a1.78 1.78 0 0 0 .25.19z" fill="#1d1d1b" transform="translate(-112.63 -106.34)"/><path d="m136.64 277 .3.28-.2.32-.88-.48.24-.4.42.2z" fill="#1d1d1b" transform="translate(-112.63 -106.34)"/><path d="m133.12 301.64a5.16 5.16 0 0 1 2.83 4.11 11.31 11.31 0 0 1 -.88 3.27l-1.55.39c.36-.24 1-1 1.43-3.73 0 0-.07-2.28-3.29-3.66z" fill="#bcad71" transform="translate(-112.63 -106.34)"/><path d="m133.52 309.41 1.55-.39a3.43 3.43 0 0 1 -.67 1l-.44-.18-.23.58-.37.09-.25-1h.1.09a.59.59 0 0 0 .21-.09z" fill="#1d1d1b" transform="translate(-112.63 -106.34)"/><path d="m134.75 310.13-.84.22a1.36 1.36 0 0 0 .2-.11 2.17 2.17 0 0 0 .29-.24z" fill="#1d1d1b" transform="translate(-112.63 -106.34)"/><path d="m131.66 302c3.22 1.38 3.29 3.64 3.29 3.66-.4 2.69-1.07 3.49-1.43 3.73l-.3.08a4.93 4.93 0 0 1 -3.48-1.67 2.65 2.65 0 0 1 -.43-2v-.14c-.12-2.72 1.62-3.49 2.26-3.69z" fill="#bcad71" transform="translate(-112.63 -106.34)"/><path d="m134 309.82.44.18a2.17 2.17 0 0 1 -.29.24 1.36 1.36 0 0 1 -.2.11h-.18z" fill="#1d1d1b" transform="translate(-112.63 -106.34)"/><path d="m133.73 310.4h.18a.6.6 0 0 1 -.19.08z" fill="#1d1d1b" transform="translate(-112.63 -106.34)"/><path d="m133.73 310.4a1.22 1.22 0 0 1 -.41.08h-.18a5.76 5.76 0 0 1 -4.23-2.11 3.69 3.69 0 0 1 -.59-2.67 4.31 4.31 0 0 1 2.43-4.4l.83.73c-.64.2-2.38 1-2.26 3.69v.14a2.65 2.65 0 0 0 .43 2 4.93 4.93 0 0 0 3.48 1.67h-.1l.25 1z" fill="#1d1d1b" transform="translate(-112.63 -106.34)"/><path d="m133.21 309.5.3-.08a.59.59 0 0 1 -.21.09z" fill="#1d1d1b" transform="translate(-112.63 -106.34)"/><path d="m133.12 301.64-1.46.38h-.09l-.83-.73a3.72 3.72 0 0 1 .88-.31h.14.13a8.81 8.81 0 0 1 1.23.66z" fill="#1d1d1b" transform="translate(-112.63 -106.34)"/><path d="m125.43 281.05a2.17 2.17 0 0 0 0 .25l-1-.13a6 6 0 0 1 .11-.61l.57.22.16.09z" fill="#1d1d1b" transform="translate(-112.63 -106.34)"/></svg>