<svg id="Layer_2" height="512" viewBox="0 0 242.99 289.77" width="512" xmlns="http://www.w3.org/2000/svg" data-name="Layer 2"><g transform="translate(-132.34 -98.16)"><path d="m375.33 305.56-.2.6c0 .09-2.62 7.76-17.54 39.9l-.17-.08-.5-.65c12.47-26.89 16.2-36.41 17.05-38.71-16.43-1.31-34-1.37-47.86-1.07l-.4-.51h23.83v-.72c8.27.15 16.87.51 25.16 1.19z" fill="#1d1d1b"/><path d="m374 306.62c-.85 2.3-4.58 11.82-17.05 38.71l-30.81-39.78c13.86-.3 31.4-.24 47.86 1.07z" fill="#9ac5db"/><path d="m357.42 346 .17.08c-2.9 6.25-6.27 13.44-10.18 21.67h-.07l-.31-1-.2.06c3.67-7.72 6.85-14.5 9.62-20.45l.18.24z" fill="#1d1d1b"/><path d="m356.92 345.33.5.65-.79.61-.18-.24c.16-.35.31-.69.47-1.02z" fill="#1d1d1b"/><path d="m356.92 345.33c-.16.33-.31.67-.47 1l-31.59-40.77h1.25z" fill="#9ac5db"/><path d="m324.86 305.58 31.59 40.77c-2.77 5.95-5.95 12.73-9.62 20.45-44.36 14-71.84 1.21-75.41-.62 10.85-24 25.7-56.19 28.38-59.52 1.53-.1 11.44-.76 25.06-1.08z" fill="#b8d8e7"/><path d="m349.54 304.32v.68h-12.49v-.15l.64-.65c3.82.02 7.8.05 11.85.12z" fill="#1d1d1b"/><path d="m349.54 295.37v8.95c-4.05-.07-8-.1-11.85-.08l.05-.06-.14-.14h10.94v-8.21l-11-9.36.53-.82-.3-.29z" fill="#1d1d1b"/></g><path d="m216.2 197.67v8.21h-10.94l-7.01-6.78 6.99-10.79z" fill="#b8d8e7"/><path d="m347.34 367.7h.07q-2.24 4.71-4.72 9.9l-.07.16-.16.07c-.3.15-20.89 10.07-44 10.07-11.23 0-23-2.34-33.39-9.3l-.35-.23.17-.39c1.25-2.8 30.72-68.64 34.27-72.35l.14-.14h.19c.2 0 10.18-.71 24.43-1.07l.34.41.16.2.41.54c-13.62.32-23.53 1-25.06 1.08-2.68 3.33-17.53 35.49-28.38 59.52l-.39-.17-.5.87.48.26c-1.81 4-3.5 7.77-5 11.11 30.24 19.94 72.95.38 75.87-1q2.29-4.79 4.38-9.18c.38-.13.77-.24 1.11-.36z" fill="#1d1d1b" transform="translate(-132.34 -98.16)"/><path d="m347 366.74.31 1c-.36.12-.73.23-1.09.33l.58-1.23z" fill="#1d1d1b" transform="translate(-132.34 -98.16)"/><path d="m346.83 366.8-.58 1.23a131.92 131.92 0 0 1 -39 6.24c-20.94 0-33.67-5.87-36.23-7.17l.41-.92c3.57 1.82 31.04 14.62 75.4.62z" fill="#d9ebf4" transform="translate(-132.34 -98.16)"/><path d="m346.25 368q-2.08 4.39-4.38 9.18c-2.92 1.38-45.63 20.94-75.87 1 1.5-3.34 3.19-7.11 5-11.11 2.56 1.3 15.29 7.17 36.23 7.17a131.92 131.92 0 0 0 39.02-6.24z" fill="#d9ebf4" transform="translate(-132.34 -98.16)"/><path d="m205.77 187.49-.53.82-.44-.37.65-.76.02.02z" fill="#1d1d1b"/><path d="m337.79 285.34-.65.76.44.37-7 10.79-.31-.3-.39-.44 6.93-10.72c-4.76-4.53-62.75-59.71-114.24-108.81-41.17-39.26-78.19-74.64-80.54-77.14-.83-.88-1.4-.7-1.59-.64-1.83.56-3.54 5-4.85 9.79l-.26-.27-.71.71h-.19c1.36-5.1 3.31-10.4 5.72-11.14a2.47 2.47 0 0 1 2.61.92c5.36 5.64 192.11 183.34 195.03 186.12z" fill="#1d1d1b" transform="translate(-132.34 -98.16)"/><path d="m337.74 304.18-.05.06h-1.31l-.21-.2h1.43z" fill="#1d1d1b" transform="translate(-132.34 -98.16)"/><path d="m337.69 304.24-.64.65-.67-.65z" fill="#1d1d1b" transform="translate(-132.34 -98.16)"/><path d="m205.26 205.88h-1.43l-6.42-6.2.53-.09.31-.49z" fill="#9ac5db"/><path d="m337.05 304.89v.11h-11.34l-.5-.64c3.51-.08 7.26-.14 11.17-.16z" fill="#1d1d1b" transform="translate(-132.34 -98.16)"/><path d="m336.82 285.8-6.93 10.72-56.12-62.52c-19.77-22.55-37.38-40.75-52.77-55.38l1.56-1.63c51.51 49.1 109.5 104.28 114.26 108.81z" fill="#9b7b59" transform="translate(-132.34 -98.16)"/><path d="m336.17 304 .21.2c-3.91 0-7.66.08-11.17.16l-.13-.17-.24.18h-.89l-4-4.89 1.13-.19 3.88 4.69z" fill="#1d1d1b" transform="translate(-132.34 -98.16)"/><path d="m203.83 205.88h-11.25l-3.88-4.69 8.71-1.51z" fill="#9ac5db"/><path d="m198.25 199.1-.31.49-.53.09-.19-.18-.62-.69.74-.13.21-.32.39.44z" fill="#1d1d1b"/><path d="m329.89 296.52-.21.32-.74.13-55.94-62.32c-78-89.06-123.3-110.31-123.75-110.51l-.15-.11-13.81-13.91c.09-.37.19-.75.29-1.12l14.17 14.27c1.68.79 27 13.25 71.25 55.35 15.37 14.63 33 32.83 52.75 55.37z" fill="#9b7b59" transform="translate(-132.34 -98.16)"/><path d="m197.41 199.68-8.71 1.51-.55-.67-.04-.25 8.49-1.46.62.69z" fill="#1d1d1b"/><path d="m273 234.65 55.94 62.35-8.49 1.46h-.15c-7.69-8.91-134.72-155.46-169.82-161.29l-17.07-18.08c.35-2.15 1-5.57 1.9-9l13.81 13.91.15.11c.45.23 45.78 21.48 123.73 110.54z" fill="#825a20" transform="translate(-132.34 -98.16)"/><path d="m325.71 305 .4.51h-1.25l-.41-.54z" fill="#1d1d1b" transform="translate(-132.34 -98.16)"/><path d="m325.71 305h-1.26l-.16-.2.55-.43h.37z" fill="#1d1d1b" transform="translate(-132.34 -98.16)"/><path d="m325.08 304.23.13.17h-.37z" fill="#1d1d1b" transform="translate(-132.34 -98.16)"/><path d="m324.84 304.41-.55.43-.34-.41z" fill="#1d1d1b" transform="translate(-132.34 -98.16)"/><path d="m188.15 200.52.55.67-1.13.19-.19-.22z" fill="#1d1d1b"/><path d="m320.45 298.43v.25l-.77.64c-1.68-1.95-134.75-155.84-169.52-161.19h-.17l-17.65-18.69v-.24c.15-.94.87-5.29 2.06-9.79h.19l.68.68c-.89 3.4-1.55 6.82-1.9 9l17.07 18.08c35.14 5.83 162.17 152.38 169.86 161.29z" fill="#1d1d1b" transform="translate(-132.34 -98.16)"/><path d="m271.41 366.18-.41.92-.48-.26.5-.87z" fill="#1d1d1b" transform="translate(-132.34 -98.16)"/><path d="m222.58 177-1.58 1.62c-44.24-42.1-69.57-54.56-71.25-55.35l-14.15-14.27c1.31-4.77 3-9.23 4.85-9.79.19-.06.76-.24 1.59.64 2.35 2.5 39.37 37.88 80.54 77.15z" fill="#9b7b59" transform="translate(-132.34 -98.16)"/><path d="m135.34 108.73.26.27c-.1.37-.2.75-.29 1.12l-.68-.68z" fill="#1d1d1b" transform="translate(-132.34 -98.16)"/></svg>