<svg id="Layer_2" height="512" viewBox="0 0 196.33 238.63" width="512" xmlns="http://www.w3.org/2000/svg" data-name="Layer 2"><path d="m349.92 205.75c9.19 17.89 17.09 49.91 2.59 100.89 0-.9 0-2.16 0-3.73 13.09-48.62 5.44-79.33-3.44-96.64-9.41-18.36-22.08-25.87-23.27-26.54l.51-.86c1.42.82 14.16 8.48 23.61 26.88z" fill="#1d1d1b" transform="translate(-164.18 -146.04)"/><path d="m349.06 206.27c8.88 17.31 16.53 48 3.44 96.64-.26-11.29-2.71-38.44-19.19-60.66-.13-.22-8.27-13.7-29.24-30-13.65-10.61-32.74-22.42-58.59-32.55a150.52 150.52 0 0 0 -22.95-1.7c4.2-2 20.78-5.54 72.4 20.74.4.29 10.24 7.2 36.23 8.14h.23l.15-.16c.19-.19 4.27-4.77-5.43-15.68.73.2 1.47.39 2.23.58l3 .73-2.59-1.64c-.22-.14-14.93-9.46-26.52-17.55a10 10 0 0 1 -.08-4c16 12.11 20.86 13 21.89 13h.19.23l1.36-2.33c1.18.57 13.83 8.08 23.24 26.44z" fill="#70797e" transform="translate(-164.18 -146.04)"/><path d="m352.5 302.91v3.73l-1-.28q.5-1.74 1-3.45z" fill="#1d1d1b" transform="translate(-164.18 -146.04)"/><path d="m351.54 306.36 1 .28c0 1-.05 1.55-.05 1.59l-1-.06c0-.05 0-.68.06-1.81z" fill="#1d1d1b" transform="translate(-164.18 -146.04)"/><path d="m352.5 302.91q-.47 1.71-1 3.45c.12-7.75-.63-38.74-19-63.56-.15-.25-8.22-13.59-29-29.73l.17-.25.28-.42.11-.14c21 16.29 29.11 29.77 29.24 30 16.49 22.21 18.94 49.36 19.2 60.65z" fill="#1d1d1b" transform="translate(-164.18 -146.04)"/><path d="m335.59 163-9.29 15.89-.13-.07-.47.88h.09l-1.36 2.33h-.23-.2c-1 0-5.86-.84-21.89-13 .06-.46.13-.76.13-.77l-1-.21a2.31 2.31 0 0 0 -.06.29l-1.45-1.11-.37-.28 3-4.51.61.36.51-.86-.56-.34 9.52-14.28zm-11.75 18.1 10.42-17.81-4.57-3.07.29-.34-.76-.65-.36.43-16.11-10.82-12 18c6 4.58 10.47 7.7 13.85 9.8l-.28.33.77.64.37-.44c5.47 3.36 7.71 3.83 8.38 3.93z" fill="#1d1d1b" transform="translate(-164.18 -146.04)"/><path d="m334.26 163.29-10.42 17.81c-.67-.07-2.91-.57-8.39-3.91l14.24-17z" fill="#7c601c" transform="translate(-164.18 -146.04)"/><path d="m326.11 191c9.7 10.91 5.62 15.49 5.43 15.68l-.15.16h-.23c-26-.94-35.83-7.85-36.23-8.14-51.62-26.28-68.2-22.76-72.4-20.74h-1.84c1.48-1.41 14.48-10.8 74.76 19.9.16.11 10 7 35.48 8 .57-.91 2.62-5.51-6.64-15.34.59.14 1.2.32 1.82.48z" fill="#858c90" transform="translate(-164.18 -146.04)"/><path d="m331.31 192.31-3-.73c-.76-.19-1.5-.38-2.23-.58-.37-.42-.77-.85-1.18-1.29v-.07l.54.16c-4.92-3.15-15.52-10-24.26-16.13l.06-.09.95-.31a.83.83 0 0 1 0-.15c11.59 8.09 26.3 17.41 26.52 17.55z" fill="#dee0e2" transform="translate(-164.18 -146.04)"/><path d="m324.29 190.49c9.26 9.83 7.21 14.43 6.64 15.34-25.44-1-35.32-7.87-35.48-8-60.28-30.7-73.28-21.31-74.76-19.9a166.73 166.73 0 0 0 -26.29 2.11v-.26l.21-.12c.15-.09 3.73-2.09 3.58-4.57-.07-1.24-1-2.32-2.89-3.21 2.75-2.33 14.46-11.75 21.18-10.07a5.63 5.63 0 0 1 4 3.91l1 2.62v-9.54l8.58-2.22c4.52 3.55 11.23 8.86 11.69 9.33l1.18 1.22.3-.69a34.72 34.72 0 0 0 2.42-12.39l9.95-2.25 10.84 7.46h6.81l.14-.12c.2-.17 4.65-4 5-7.18a109.79 109.79 0 0 1 24.12 10.61l-3 4.51.37.28 1.45 1.11a14.3 14.3 0 0 0 -.19 3.82c-5.32-3.74-9.82-7.13-11.69-9.11l-1.71-1.81.88 2.33c-.04.19 7.16 18.38 35.67 26.79z" fill="#858c90" transform="translate(-164.18 -146.04)"/><path d="m165.8 13.84-.29.34-.83-.56.36-.43z" fill="#1d1d1b"/><g transform="translate(-164.18 -146.04)"><path d="m329.69 160.22-14.24 17c-.28-.16-.56-.34-.86-.53l14.27-17z" fill="#7c601c"/><path d="m328.86 159.66-14.27 17c-3.38-2.1-7.89-5.22-13.85-9.8l12-18z" fill="#917330"/><path d="m326.3 178.87-.51.86h-.09l.47-.88z" fill="#1d1d1b"/><path d="m324.93 189.71c.41.44.81.87 1.18 1.29-.62-.16-1.23-.34-1.82-.51l-.09-.1z" fill="#dee0e2"/><path d="m325.49 189.8-.54-.16c-22.05-6.39-31.25-18.66-34.28-23.87 2.5 2.12 6.31 4.92 10.56 7.9 8.77 6.13 19.34 12.98 24.26 16.13z" fill="#dee0e2"/><path d="m325 189.64v.07l-.73.68.09.1c-28.51-8.41-35.71-26.6-35.79-26.79l-.88-2.33 1.71 1.81c1.87 2 6.37 5.37 11.69 9.11a5.9 5.9 0 0 0 .27 1.29l-.06.09c-4.25-3-8.06-5.78-10.56-7.9 2.96 5.23 12.16 17.48 34.26 23.87z" fill="#dee0e2"/><path d="m315.45 177.19-.37.44-.77-.64.28-.33c.3.19.58.34.86.53z" fill="#1d1d1b"/><path d="m304.07 212.26-.11.14-24.33-15.86-.27.4a257 257 0 0 0 -34.15-16.27 151.83 151.83 0 0 0 -23.9-1.73v-.2a4.4 4.4 0 0 1 1.22-.78 150.52 150.52 0 0 1 22.95 1.75c25.85 10.13 44.94 21.94 58.59 32.55z" fill="#1d1d1b"/><path d="m304 212.4-.28.42-.17.25a207.66 207.66 0 0 0 -24.15-16.13l.27-.4z" fill="#1d1d1b"/><path d="m303.52 162.07-.51.86-.61-.36.56-.84z" fill="#1d1d1b"/><path d="m303.51 213.07-116.45 171.61-.32-.07c-24-5.14-22.59-15.13-22.52-15.56l.08-.19 115.06-171.92a207.66 207.66 0 0 1 24.15 16.13zm-116.89 170.49 116-170.88-22.65-14.77-9.6 14.34-.25-.29-.76.65.43.51-104.59 156.19c0 .57 0 3.56 3.87 6.91l-.34.38.75.66.37-.41c3.15 2.37 8.24 4.85 16.77 6.71z" fill="#1d1d1b"/><path d="m303 161.73-.56.84a109.79 109.79 0 0 0 -24.16-10.57 3.22 3.22 0 0 0 0-.76l.08-.26a111 111 0 0 1 24.64 10.75z" fill="#1d1d1b"/><path d="m302.57 212.68-115.95 170.88c-8.53-1.86-13.67-4.34-16.77-6.71 6.15-7.05 87.74-101.26 106.65-157l.09-.27-6.27-7.33 9.6-14.34z" fill="#7c601c"/><path d="m301.27 168.18 1 .21s-.07.31-.13.77l-.91-.69a2.31 2.31 0 0 1 .04-.29z" fill="#1d1d1b"/><path d="m302.2 173.12a.83.83 0 0 0 0 .15l-.95.31a5.9 5.9 0 0 1 -.27-1.29c.43.28.82.56 1.22.83z" fill="#dee0e2"/><path d="m302.12 169.16a10 10 0 0 0 .08 4c-.4-.27-.79-.55-1.18-.83a14.3 14.3 0 0 1 .19-3.82z" fill="#858c90"/><path d="m278.36 150.94-.08.26-1 .13a1.9 1.9 0 0 1 0 .34c-16.44-4.87-29-4.64-29.16-4.63-13.12 2.96-26.06 8.36-37.4 14.26-4.67 1.43-9.72 4.84-13 7.36a247.06 247.06 0 0 0 -23.72 16.34q3.21-1 6.4-1.9l-.11.2.88.46v.16c-3.17.84-6.37 1.81-9.56 2.93l-2.59.91 2.1-1.76c.37-.31 37.31-31.09 76.81-39.9.33-.1 13.41-.31 30.43 4.84z" fill="#1d1d1b"/><path d="m278.28 151.2a3.22 3.22 0 0 1 0 .76l-1-.29a1.9 1.9 0 0 0 0-.34z" fill="#1d1d1b"/><path d="m277.29 151.67 1 .29c-.34 3.18-4.79 7-5 7.18l-.14.12h-6.81l-10.84-7.46-9.95 2.25a34.72 34.72 0 0 1 -2.42 12.39l-.3.69-1.18-1.22c-.46-.47-7.17-5.78-11.69-9.33l-8.58 2.22v9.56l-1-2.62a5.63 5.63 0 0 0 -4-3.91c-6.72-1.68-18.43 7.74-21.18 10.07 1.85.89 2.82 2 2.89 3.21.15 2.48-3.43 4.48-3.58 4.57l-.21.12-.23-.1c-6.76-3-10.75 1-12.24 3l-1.45.38c.77-1.27 5.33-8 13.86-4.37 1-.6 2.94-2.09 2.86-3.51-.08-1.22-1.68-2.13-3-2.67l-.74-.31.6-.53c.18-.16 1.58-1.4 3.68-3 4-2.44 8.4-4.94 13-7.36a11.29 11.29 0 0 1 6-.44 6.14 6.14 0 0 1 3.7 2.61v-5.5l9.81-2.54.19.15c1.16.91 11.32 8.9 12 9.58l.12.12a35.68 35.68 0 0 0 2.06-11.69v-.4l11.16-2.52 10.94 7.53h6.13c1.43-1.23 4.49-4.35 4.54-6.56z" fill="#99a0a3"/><path d="m270.32 212.25 6.27 7.33-.09.27c-18.91 55.74-100.5 150-106.65 157-.28-.21-.54-.43-.78-.63 5.92-6.8 87.34-100.75 106.39-156.42l-5.72-6.68z" fill="#917330"/><path d="m269.74 213.12 5.72 6.68c-19 55.67-100.47 149.62-106.39 156.42-3.9-3.35-3.91-6.34-3.87-6.91z" fill="#917330"/><path d="m277.29 151.67c-.05 2.21-3.11 5.36-4.51 6.59h-6.13l-10.94-7.53-11.16 2.52v.4a35.68 35.68 0 0 1 -2.06 11.69l-.12-.12c-.67-.68-10.83-8.67-12-9.58l-.19-.15-9.8 2.51v5.44a6.14 6.14 0 0 0 -3.7-2.61 11.29 11.29 0 0 0 -6 .44c11.38-5.87 24.32-11.27 37.45-14.27.19 0 12.72-.2 29.16 4.67z" fill="#99a0a3"/></g><path d="m106.14 66.2-.58.88-.43-.52.76-.64z" fill="#1d1d1b"/><path d="m220.69 178h1.84a4.4 4.4 0 0 0 -1.22.78l-.76-.65z" fill="#1d1d1b" transform="translate(-164.18 -146.04)"/><path d="m221.31 178.74v.2a158.29 158.29 0 0 0 -40.06 4.93v-.16a8.89 8.89 0 0 1 .68-1c4.23-1.09 8.42-1.95 12.51-2.61a166.73 166.73 0 0 1 26.25-2.1l-.14.14z" fill="#1d1d1b" transform="translate(-164.18 -146.04)"/><path d="m210.72 161.3c-4.64 2.42-9 4.92-13 7.36 3.28-2.52 8.33-5.93 13-7.36z" fill="#1d1d1b" transform="translate(-164.18 -146.04)"/><path d="m197.16 175.17c.08 1.42-1.88 2.91-2.86 3.51-8.53-3.59-13.09 3.1-13.86 4.37q-3.19.85-6.4 1.9a247.06 247.06 0 0 1 23.64-16.29c-2.1 1.6-3.5 2.84-3.68 3l-.6.53.74.31c1.34.5 2.94 1.5 3.02 2.67z" fill="#99a0a3" transform="translate(-164.18 -146.04)"/><path d="m194.36 179.8v.26c-4.09.66-8.28 1.52-12.51 2.61 1.49-2 5.48-5.93 12.24-3z" fill="#70797e" transform="translate(-164.18 -146.04)"/><path d="m180.44 183.05 1.45-.38a8.89 8.89 0 0 0 -.68 1l-.88-.46z" fill="#1d1d1b" transform="translate(-164.18 -146.04)"/><path d="m169.85 376.85-.37.41-.75-.66.34-.38c.24.2.5.42.78.63z" fill="#1d1d1b" transform="translate(-164.18 -146.04)"/></svg>