<svg id="Layer_3" height="512" viewBox="0 0 202.24 207.61" width="512" xmlns="http://www.w3.org/2000/svg" data-name="Layer 3"><g transform="translate(-167.32 -141.2)"><path d="m355.17 152.31c.63.58 15.29 14.24 14.35 24.83v.28l-6.7 3.4-.05-.1.23-1h-.17l5.74-2.92c.61-10.07-13.9-23.59-14.05-23.73-15.91-14.34-22-10.48-22.72-10l-2 5-.05-.17-1 .27h-.07l2.33-5.69c.24-.29 6.45-6.11 24.16 9.83z" fill="#1d1d1b"/><path d="m354.49 153.05c.15.14 14.66 13.66 14.05 23.73l-5.74 2.92c-24.44-5.83-32.35-29.38-33.05-31.63l2-5c.71-.5 6.83-4.36 22.74 9.98z" fill="#a09458"/><path d="m363 179.74-.23 1c-.44-.1-.88-.21-1.31-.33l1.37-.69z" fill="#1d1d1b"/><path d="m362.8 179.7-1.37.69c-21.89-5.83-30.37-25.64-32.25-30.92l.57-1.4c.7 2.25 8.61 25.8 33.05 31.63z" fill="#a09458"/><path d="m362.79 180.82-14.13 7.18c1.11 2.1 5.41 10.71 3.1 14l-3.53 3.68-.17-.16.21-1-.27-.06 3-3.11c1.73-2.48-1.57-9.88-3.24-13a3.16 3.16 0 0 0 .43-.16l-.39-.92 13.65-6.94c.43.12.87.23 1.31.33z" fill="#1d1d1b"/><path d="m361.43 180.39-13.65 6.94c-9.18 3.84-18.13-6.4-18.28-6.56-8.77-7.3-6.86-14.87-6.2-16.76.09-.25.15-.4.17-.44l5.75-14.11c1.84 5.29 10.32 25.1 32.21 30.93z" fill="#c4b769"/><path d="m347.74 188.41c1.67 3.11 5 10.51 3.24 13l-3 3.11c-30.52-6.78-41.54-38.4-42.62-41.71 1.18-1.22 2.33-2.39 3.41-3.47a21.74 21.74 0 0 1 13.58 4.24c-.65 1.88-2.87 10.23 6.39 17.93.08.09 6.73 7.72 14.7 7.72a11.73 11.73 0 0 0 4.3-.82z" fill="#a09458"/><path d="m348.27 204.57-.21 1-.87-.2.81-.84z" fill="#1d1d1b"/><path d="m348.23 205.71-12.58 13.1a9.92 9.92 0 0 1 -4.34.84c-2.65 0-6.4-.76-10.93-3.74l.27-.19.57-.39-.56-.42c8.22 5.51 13.79 3.34 14.46 3l12.07-12.6.87.2z" fill="#1d1d1b"/><path d="m347.78 187.33.39.92a3.16 3.16 0 0 1 -.43.16c-.07-.13-.13-.26-.2-.38l-.26-.45.46-.24z" fill="#1d1d1b"/><path d="m348 204.51-.81.84c-29.44-6.9-40.8-36.5-42.59-41.75l.78-.8c1.08 3.31 12.1 34.93 42.62 41.71z" fill="#a09458"/><path d="m347.74 187.34-.46.24.26.45c.07.12.13.25.2.38a11.73 11.73 0 0 1 -4.28.8c-8 0-14.62-7.63-14.7-7.72-9.26-7.7-7-16.05-6.39-17.93l.32.22.51.38.06-.14c-.66 1.89-2.57 9.46 6.2 16.76.15.16 9.1 10.4 18.28 6.56z" fill="#1d1d1b"/><path d="m347.19 205.35-12.07 12.65c-.67.3-6.24 2.47-14.46-3-.74-.55-18.76-14.21-23.59-23.16l-.28-.53c-1.17-1.87-4.95-8.47-4.27-14.54.86-.94 6.65-7.26 12.18-13 1.69 5.08 13.05 34.68 42.49 41.58z" fill="#c4b769"/><g fill="#1d1d1b"><path d="m329.75 148.07-.57 1.4c-.29-.8-.43-1.27-.44-1.3l1-.27z"/><path d="m329.18 149.47-5.75 14.11-.91-.41a4 4 0 0 0 -.15.39 21.74 21.74 0 0 0 -13.58-4.24c-1.08 1.08-2.23 2.25-3.41 3.47a2.73 2.73 0 0 1 -.08-.27l-1 .28-.18-.18c1.4-1.45 2.78-2.86 4-4.13l.12-.12h.17c.28 0 6.83-.86 14.25 4.26l5.92-14.47h.07s.24.51.53 1.31z"/><path d="m323.43 163.58s-.08.19-.17.44l-.06.14-.51-.38-.32-.22a4 4 0 0 1 .15-.39z"/><path d="m321.22 215.33-.57.39-.27.19-.29-.19.55-.83z"/><path d="m320.64 214.89-.55.83.29.19c-6.18 4.41-16.28 17.93-17.07 19-1.94 6.24.72 27.08 1.72 34.24a66.55 66.55 0 0 0 -2.16-9.07c-1-9.13-2-21-.49-25.56l.08-.14c.43-.59 10.51-14.21 17.06-19.07-3.1-2.37-18-14-23-22.5l-19.52 20.58c-1.15 1.19-14.07.75-24.21.22a68.67 68.67 0 0 0 -10-1.62c12.2.83 32.06 1.75 33.49.69l19.72-20.77.23.34.82-.57c4.83 9 22.85 22.66 23.59 23.21z"/></g><path d="m296.51 192.8c5 8.46 19.91 20.13 23 22.5-6.55 4.86-16.63 18.48-17.06 19.07l-.08.14c-1.47 4.55-.54 16.43.49 25.56.08.75.17 1.49.25 2.19a6.54 6.54 0 0 0 -.8-.54c-8.64-5-46.6-10.27-51.37-10.91a2.09 2.09 0 0 0 0-.25c0-4.44-4.65-8.06-10.35-8.06-4 0-7.46 1.77-9.18 4.35-33.17-5.4-48.78-2.78-53.1-1.75a68.5 68.5 0 0 1 58.3-32.38q3.08 0 6.07.27c2.22.15 5.92.39 10.09.62 10.14.53 23.06 1 24.21-.22zm-1.35 18.54 1-2.09-1.81 1.48c-.07.05-6.75 5.56-15.18 13.82l-1 .94h-.05.1l1.31-.13c.47.01 9.12-.96 15.63-14.02zm-36.83 19.76 3.42.31-3.19-1.27c-.24-.1-24.65-9.55-50.18 2.31l-3.66 1.7 4-.76c.2-.04 24.28-4.55 49.61-2.29z" fill="#98d8d5"/><path d="m305.43 272a66.25 66.25 0 0 1 .51 8.26c0 37.8-31.09 68.55-69.31 68.55s-69.31-30.75-69.31-68.55a67.46 67.46 0 0 1 9.68-34.86h.08l.32 1 .2-.06a65.2 65.2 0 0 0 -4 7.92l-.31-.24-.62.79.54.41a66.34 66.34 0 0 0 -4.88 25c0 37.25 30.65 67.55 68.31 67.55s68.31-30.3 68.31-67.55a66.67 66.67 0 0 0 -.47-7.91l.6-.22z" fill="#1d1d1b"/><path d="m305.39 271.59.06.4c-.03-.13-.04-.26-.06-.4z" fill="#1d1d1b"/><path d="m305.39 271.59v.41l-.36.13-.6.22c0-.34-.08-.67-.13-1s-.14-.94-.25-1.69c-.22-1.57-.54-3.91-.88-6.67l.35-.34a2.8 2.8 0 0 0 -.44-.38c-.08-.7-.17-1.44-.25-2.19a66.55 66.55 0 0 1 2.16 9.07l.06.37c.05.38.1.71.14 1 .14.65.19 1.04.2 1.07z" fill="#1d1d1b"/><path d="m305.38 162.79s0 0 0 0l-.78.8c-.17-.49-.25-.77-.26-.8l1-.28a2.73 2.73 0 0 0 .04.28z" fill="#1d1d1b"/><path d="m304.47 272.35a66.67 66.67 0 0 1 .47 7.91c0 37.25-30.64 67.55-68.31 67.55s-68.31-30.3-68.31-67.55a66.34 66.34 0 0 1 4.88-25 139.45 139.45 0 0 0 37.58 18.74 142.88 142.88 0 0 0 44.66 7.24 140.36 140.36 0 0 0 49.03-8.89zm-15.47 31.93c2.13-1.74 2.16-5.44 0-8.4s-5.86-4.16-8.17-2.49l-.11.09a4.46 4.46 0 0 0 -1.58.73c-2.53 1.83-2.69 6-.35 9.17a7.71 7.71 0 0 0 6 3.4 4.75 4.75 0 0 0 2.81-.87 4.51 4.51 0 0 0 1.4-1.63zm-17.77 24.28c2.81-1.19 3.9-5.15 2.43-8.92s-5.05-6-8-4.9l-.24.11a4.86 4.86 0 0 0 -1.76.33 5.58 5.58 0 0 0 -3.24 3.78 9.08 9.08 0 0 0 .35 5.77c1.28 3.29 4.08 5.42 6.79 5.42a4.8 4.8 0 0 0 1.78-.33 5 5 0 0 0 1.89-1.26zm-26.23-24.24c1.91-2 1.53-5.62-.9-8.32s-6.28-3.52-8.39-1.61l-.11.11a4.54 4.54 0 0 0 -1.49.89c-2.32 2.09-2 6.19.62 9.15a8.27 8.27 0 0 0 4.58 2.68 6.69 6.69 0 0 0 1.16.11 4.82 4.82 0 0 0 3.3-1.21 4.75 4.75 0 0 0 1.23-1.8zm-25.19 20.68a6.23 6.23 0 0 0 -3.56-10.95 8.16 8.16 0 0 0 -4-1.07 7.94 7.94 0 0 0 -2.43.38 8.29 8.29 0 0 0 -5.17 10.5 8.4 8.4 0 0 0 7.91 5.88 7.85 7.85 0 0 0 2.43-.38 8 8 0 0 0 4.82-4.36zm-18.16-30.69a6.94 6.94 0 0 0 -8.21-10.31 6.7 6.7 0 0 0 -4 1.05 6.91 6.91 0 0 0 -3.07 5 9.32 9.32 0 0 0 6.45 10 7.66 7.66 0 0 0 2.14.32 6.62 6.62 0 0 0 3.64-1.07 6.94 6.94 0 0 0 3.05-4.96z" fill="#ef4230"/><path d="m304.34 271.34c.05.34.09.67.13 1a140.36 140.36 0 0 1 -49 8.9 142.88 142.88 0 0 1 -44.69-7.24 139.45 139.45 0 0 1 -37.58-18.79q.18-.48.39-1c2.21 1.67 16.11 11.74 37.54 18.81a139.55 139.55 0 0 0 93.21-1.68z" fill="#b5261c"/><path d="m304.34 162.8s.09.31.26.8c-5.53 5.76-11.32 12.08-12.18 13-.68 6.07 3.1 12.67 4.27 14.54l-.72.75c-1.05-1.64-5.37-8.8-4.53-15.57v-.16l.11-.12c.08-.09 6.53-7.15 12.59-13.44z" fill="#1d1d1b"/><path d="m304.09 269.65c.11.75.2 1.33.25 1.69a139.55 139.55 0 0 1 -93.21 1.73c-21.43-7.07-35.33-17.14-37.54-18.81a65.2 65.2 0 0 1 4-7.92c1.88-.54 17.21-4.39 53.32 1.44a6.3 6.3 0 0 0 -.13 5.25 1.93 1.93 0 0 0 0 .24c0 4.18 4.47 7.56 10 7.56s10-3.38 10-7.56a6.66 6.66 0 0 0 -.05-.78c.07-.22.13-.45.18-.68 4.84.65 46.68 6.46 51.91 11.45a64.06 64.06 0 0 1 1.27 6.39zm-27.27.48a4.83 4.83 0 0 0 .33-1.73c0-3.26-3.38-5.91-7.54-5.91s-7.53 2.65-7.53 5.91a4.7 4.7 0 0 0 .51 2.12c.12 2.9 3.26 5.22 7.11 5.22s7.13-2.42 7.13-5.4a1.48 1.48 0 0 0 -.01-.21zm-58.71-10.66a3.9 3.9 0 0 0 .32-1.54c0-3.06-3.62-5.55-8.07-5.55s-8.06 2.49-8.06 5.55a4.08 4.08 0 0 0 .5 1.93c.11 2.73 3.5 4.91 7.66 4.91s7.66-2.25 7.66-5a2.26 2.26 0 0 0 -.01-.3z" fill="#ef4230"/><path d="m303.56 262.64-.35.34c0-.24-.06-.47-.09-.72a2.8 2.8 0 0 1 .44.38z" fill="#1d1d1b"/><path d="m303.21 263c.34 2.76.66 5.1.88 6.67a64.06 64.06 0 0 0 -1.34-6.39l.09.08z" fill="#1d1d1b"/><path d="m303.21 263-.37.36-.09-.08c-.14-.51-.28-1-.43-1.54a6.54 6.54 0 0 1 .8.54c.03.23.06.46.09.72z" fill="#1d1d1b"/><path d="m302.32 261.72c.15.51.29 1 .43 1.54-5.23-5-47.07-10.8-51.91-11.45a6.65 6.65 0 0 0 .11-1c4.77.64 42.73 5.87 51.37 10.91z" fill="#b5261c"/><path d="m297 191.65-.82.57-.23-.34.72-.75z" fill="#1d1d1b"/><path d="m296.72 191.12.28.53-.31-.49z" fill="#1d1d1b"/><path d="m296.21 209.25-1 2.09c-6.51 13.06-15.18 14-15.54 14.06l-1.31.13h-.05l1-.94c8.43-8.26 15.11-13.77 15.18-13.82zm-3.19 4c-2.39 2-6.7 5.85-11.77 10.75 2.55-.92 7.48-3.49 11.75-10.79z" fill="#98d8d5"/><path d="m289 295.88c2.15 3 2.12 6.66 0 8.4a7.38 7.38 0 0 0 -1-7.54 7.72 7.72 0 0 0 -6-3.41 5.05 5.05 0 0 0 -1.23.15l.11-.09c2.27-1.67 5.93-.56 8.12 2.49z" fill="#ef4230"/><path d="m288 296.74a7.38 7.38 0 0 1 1 7.54l-.17.14a4 4 0 0 1 -.83.46c1.63-1.86 1.5-5.17-.43-7.85s-5.32-3.93-7.63-2.72a3.65 3.65 0 0 1 .79-.83 5.05 5.05 0 0 1 1.23-.15 7.72 7.72 0 0 1 6.04 3.41z" fill="#ef4230"/><path d="m288.83 304.42.17-.14a4.51 4.51 0 0 1 -1.38 1.63 4.75 4.75 0 0 1 -2.81.87 7.71 7.71 0 0 1 -6-3.4c-2.34-3.22-2.18-7.34.35-9.17a4.46 4.46 0 0 1 1.58-.73 3.65 3.65 0 0 0 -.79.83 3.76 3.76 0 0 0 -.5.31c-2.31 1.67-2.41 5.46-.24 8.47s5.82 4.09 8.13 2.41a3.6 3.6 0 0 0 .67-.62 4 4 0 0 0 .82-.46z" fill="#b5261c"/><path d="m287.57 297c1.93 2.68 2.06 6 .43 7.85a4.08 4.08 0 0 1 -1 .27h.07c2.08-1.51 2.14-5 .13-7.78s-5.34-3.81-7.42-2.3a2.16 2.16 0 0 0 -.33.27 3.72 3.72 0 0 1 .53-1c2.27-1.21 5.56-.08 7.59 2.69z" fill="#ef4230"/><path d="m288 304.88a3.6 3.6 0 0 1 -.67.62c-2.31 1.68-5.95.59-8.13-2.41s-2.07-6.8.24-8.47a3.76 3.76 0 0 1 .5-.31 3.72 3.72 0 0 0 -.53 1c-1.76 1.62-1.7 4.88.2 7.51s5.27 3.79 7.35 2.35a4.08 4.08 0 0 0 1.04-.29z" fill="#b5261c"/><path d="m287.16 297.32c2 2.78 1.95 6.27-.13 7.78h-.07c-2.13.29-4.63-.92-6.31-3.22a7.23 7.23 0 0 1 -1.24-6.64 2.16 2.16 0 0 1 .33-.27c2.08-1.46 5.41-.42 7.42 2.35z" fill="#ef4230"/><path d="m280.65 301.93c1.68 2.3 4.18 3.51 6.31 3.22-2.08 1.44-5.36.39-7.35-2.35s-2-5.89-.2-7.51a7.23 7.23 0 0 0 1.24 6.64z" fill="#b5261c"/><path d="m278.31 225.53h-.1.05z" fill="#1d1d1b"/><path d="m277.15 268.4a4.83 4.83 0 0 1 -.33 1.73 3.6 3.6 0 0 0 -.22-1.13 3 3 0 0 0 0-.6c0-3-3.15-5.41-7-5.41s-7 2.42-7 5.41a4.07 4.07 0 0 0 .12 1 3.75 3.75 0 0 0 -.12.95 1.09 1.09 0 0 0 0 .18 4.7 4.7 0 0 1 -.51-2.12c0-3.26 3.38-5.91 7.53-5.91s7.53 2.64 7.53 5.9z" fill="#b5261c"/><path d="m276.82 270.13a1.48 1.48 0 0 1 0 .21c0 3-3.19 5.4-7.13 5.4s-7-2.32-7.11-5.22c1.09 2.21 3.83 3.78 7 3.78 3.42 0 6.29-1.76 7.24-4.17z" fill="#ef4230"/><path d="m276.6 269a3.6 3.6 0 0 1 .22 1.13c-.95 2.41-3.82 4.17-7.21 4.17-3.19 0-5.93-1.57-7-3.78a1.09 1.09 0 0 1 0-.18 3.75 3.75 0 0 1 .12-.95c.6 2.51 3.47 4.41 6.91 4.41 3.59 0 6.58-2.1 6.96-4.8z" fill="#ef4230"/><path d="m276.65 268.4a3 3 0 0 1 0 .6 4.15 4.15 0 0 0 -.47-1c-.28-2.52-3.1-4.51-6.52-4.51-3.58 0-6.49 2.17-6.53 4.86a3.94 3.94 0 0 0 -.38 1 4.07 4.07 0 0 1 -.12-1c0-3 3.15-5.41 7-5.41s7.02 2.47 7.02 5.46z" fill="#b5261c"/><path d="m276.13 268a4.15 4.15 0 0 1 .47 1c-.38 2.7-3.37 4.8-7 4.8-3.44 0-6.31-1.9-6.91-4.41a3.94 3.94 0 0 1 .38-1c0 2.7 2.93 4.9 6.53 4.9s6.54-2.2 6.54-4.9c.01-.13 0-.26-.01-.39z" fill="#ef4230"/><path d="m276.13 268v.4c0 2.7-2.94 4.9-6.54 4.9s-6.53-2.2-6.53-4.9c1-2 3.61-3.42 6.62-3.42a7.56 7.56 0 0 1 6.45 3.02z" fill="#ef4230"/><path d="m276.13 268a7.56 7.56 0 0 0 -6.43-3.07c-3 0-5.58 1.42-6.62 3.42 0-2.69 2.95-4.86 6.53-4.86 3.39 0 6.24 1.99 6.52 4.51z" fill="#b5261c"/><path d="m273.66 319.64c1.47 3.77.38 7.73-2.43 8.92 1.75-1.89 2.25-5.15 1-8.28a9 9 0 0 0 -3.63-4.49 6 6 0 0 0 -3.18-.94l.24-.11c2.95-1.13 6.51 1.07 8 4.9z" fill="#ef4230"/><path d="m272.27 320.28c1.21 3.13.71 6.39-1 8.28l-.14.06a4.2 4.2 0 0 1 -1 .25c2.22-1.54 3-5.05 1.69-8.41-1.37-3.52-4.55-5.64-7.33-5a4.17 4.17 0 0 1 1-.62 6 6 0 0 1 3.18.94 9 9 0 0 1 3.6 4.5z" fill="#ef4230"/><path d="m271.81 320.46c1.29 3.36.53 6.87-1.69 8.41a4.67 4.67 0 0 1 -1.12 0c2.64-1 3.69-4.73 2.32-8.25a8 8 0 0 0 -3.21-4 5.13 5.13 0 0 0 -2.62-.79 4 4 0 0 0 -1.45.27 2.26 2.26 0 0 0 -.35.17 4 4 0 0 1 .77-.82c2.8-.63 5.98 1.49 7.35 5.01z" fill="#ef4230"/><path d="m271.34 320.64c1.37 3.52.32 7.22-2.32 8.25-2.36-.25-4.73-2.23-5.87-5.18a7.87 7.87 0 0 1 .58-7.43 2.26 2.26 0 0 1 .35-.17 4 4 0 0 1 1.45-.27 5.13 5.13 0 0 1 2.62.79 8 8 0 0 1 3.19 4.01z" fill="#ef4230"/><path d="m271.09 328.62.14-.06a5 5 0 0 1 -1.85 1.26 4.8 4.8 0 0 1 -1.78.33c-2.71 0-5.51-2.13-6.79-5.42a9.08 9.08 0 0 1 -.35-5.77 5.58 5.58 0 0 1 3.24-3.78 4.86 4.86 0 0 1 1.76-.33 3.29 3.29 0 0 1 -1.58.8c-2.9 1.13-4.07 5.11-2.6 8.9s5 5.93 7.92 4.81a4.26 4.26 0 0 0 .92-.49 4.2 4.2 0 0 0 .97-.25z" fill="#b5261c"/><path d="m269 328.9a4.67 4.67 0 0 0 1.12 0 4.26 4.26 0 0 1 -.92.49c-2.91 1.12-6.46-1-7.92-4.81s-.3-7.77 2.6-8.9a4.14 4.14 0 0 1 .6-.18 4 4 0 0 0 -.77.82 4.64 4.64 0 0 0 -2.29 2.95 8 8 0 0 0 .32 5.12c1.37 3.49 4.61 5.51 7.26 4.51z" fill="#b5261c"/><path d="m269 328.9c-2.65 1-5.89-1-7.26-4.54a8 8 0 0 1 -.32-5.12 4.64 4.64 0 0 1 2.29-2.95 7.87 7.87 0 0 0 -.58 7.43c1.14 2.95 3.51 4.93 5.87 5.18z" fill="#b5261c"/><path d="m261.75 231.41-3.42-.31c-25.34-2.26-49.41 2.25-49.65 2.29l-4 .76 3.66-1.7c25.53-11.86 49.94-2.41 50.18-2.31zm-7.75-1.63a71.36 71.36 0 0 0 -18-2.3 65 65 0 0 0 -23.44 4.26 210.08 210.08 0 0 1 41.44-1.96z" fill="#98d8d5"/><path d="m251 250.56a2.09 2.09 0 0 1 0 .25l-.43-.05-.09.72v-.09a5.69 5.69 0 0 0 .06-.83c0-4.18-4.41-7.56-9.85-7.56s-9.85 3.38-9.85 7.56a6.19 6.19 0 0 0 .16 1.37 5 5 0 0 0 -.15 1.1 6.3 6.3 0 0 1 .13-5.25l.44.07.16-1h-.07c1.72-2.58 5.19-4.35 9.18-4.35 5.62 0 10.31 3.62 10.31 8.06z" fill="#b5261c"/><path d="m251 250.81a6.65 6.65 0 0 1 -.11 1h-.33c0-.09 0-.18-.08-.27l.09-.72z" fill="#b5261c"/><path d="m250.84 251.81c-.05.23-.11.46-.18.68q-.06-.37-.15-.72z" fill="#ef4230"/><path d="m250.66 252.5a6.66 6.66 0 0 1 .05.78c0 4.18-4.47 7.56-10 7.56s-10-3.38-10-7.56a1.93 1.93 0 0 1 0-.24c1.34 3.24 5.24 5.59 9.84 5.59 4.91 0 8.98-2.63 10.11-6.13z" fill="#ef4230"/><path d="m250.66 252.49c-1.13 3.52-5.2 6.13-10 6.13-4.6 0-8.5-2.35-9.84-5.59a5 5 0 0 1 .15-1.1c.84 3.53 4.86 6.2 9.69 6.2 5.07 0 9.25-2.95 9.79-6.74v.09.26h.12q.03.38.09.75z" fill="#ef4230"/><path d="m250.43 251.49c0 .09 0 .18.08.27h-.12z" fill="#ef4230"/><path d="m250.46 250.56a5.69 5.69 0 0 1 -.06.83 5.65 5.65 0 0 0 -.44-1s0 0 0 0c-.11-3.82-4.27-6.91-9.35-6.91s-9.35 3.17-9.35 7.06v.34a5.21 5.21 0 0 0 -.35 1 6.19 6.19 0 0 1 -.16-1.37c0-4.18 4.41-7.56 9.85-7.56s9.86 3.43 9.86 7.61z" fill="#b5261c"/><path d="m250 250.42a5.65 5.65 0 0 1 .44 1c-.54 3.79-4.72 6.74-9.79 6.74-4.83 0-8.85-2.67-9.69-6.2a5.21 5.21 0 0 1 .35-1c.24 3.74 4.33 6.73 9.34 6.73s9.35-3.17 9.35-7.07z" fill="#ef4230"/><path d="m250 250.42v.14c0 3.9-4.2 7.07-9.35 7.07s-9.1-3-9.34-6.73c1.31-3 5.06-5.19 9.47-5.19 4.16 0 7.73 1.94 9.22 4.7z" fill="#ef4230"/><path d="m250 250.41c-1.49-2.76-5.06-4.7-9.22-4.7-4.41 0-8.16 2.17-9.47 5.19 0-.11 0-.22 0-.34 0-3.89 4.19-7.06 9.35-7.06s9.19 3.09 9.34 6.91z" fill="#b5261c"/><path d="m252.79 213.61c-4.17-.23-7.87-.47-10.09-.62l.07-1a68.67 68.67 0 0 1 10.02 1.62z" fill="#1d1d1b"/><path d="m245 304.32a5.74 5.74 0 0 0 .33-2.52 8.29 8.29 0 0 0 -2.18-4.83 8 8 0 0 0 -5.74-2.78 5.22 5.22 0 0 0 -1.81.31l.11-.11c2.11-1.91 5.87-1.19 8.39 1.61s2.8 6.36.9 8.32z" fill="#ef4230"/><path d="m245.32 301.8a5.74 5.74 0 0 1 -.33 2.52l-.19.19a3.52 3.52 0 0 1 -.75.53c1.4-2 .92-5.29-1.28-7.74s-5.71-3.35-7.88-1.9a4 4 0 0 1 .7-.9 5.22 5.22 0 0 1 1.81-.31 8 8 0 0 1 5.74 2.78 8.29 8.29 0 0 1 2.18 4.83z" fill="#ef4230"/><path d="m244.8 304.51.19-.19a4.75 4.75 0 0 1 -1.23 1.8 4.82 4.82 0 0 1 -3.3 1.21 6.69 6.69 0 0 1 -1.16-.11 8.27 8.27 0 0 1 -4.58-2.68c-2.66-3-2.94-7.06-.62-9.15a4.54 4.54 0 0 1 1.49-.89 4 4 0 0 0 -.7.9 5.19 5.19 0 0 0 -.46.36c-2.12 1.91-1.82 5.69.66 8.45s6.22 3.45 8.34 1.54a3.81 3.81 0 0 0 .62-.71 3.52 3.52 0 0 0 .75-.53z" fill="#b5261c"/><path d="m243.09 305.38a4.11 4.11 0 0 0 1.23-3.5 7.3 7.3 0 0 0 -1.92-4.24c-2.3-2.56-5.72-3.23-7.63-1.51a2.72 2.72 0 0 0 -.29.3 4 4 0 0 1 .41-1c2.17-1.45 5.57-.67 7.88 1.9s2.68 5.71 1.28 7.74a4.16 4.16 0 0 1 -1 .4z" fill="#ef4230"/><path d="m244.32 301.88a4.11 4.11 0 0 1 -1.23 3.5l-.07.06c-2.08.51-4.7-.42-6.61-2.54a7.21 7.21 0 0 1 -1.93-6.47 2.72 2.72 0 0 1 .29-.3c1.91-1.72 5.33-1.05 7.63 1.51a7.3 7.3 0 0 1 1.92 4.24z" fill="#ef4230"/><path d="m244.05 305a3.81 3.81 0 0 1 -.62.71c-2.12 1.91-5.86 1.22-8.34-1.54s-2.78-6.54-.66-8.45a5.19 5.19 0 0 1 .46-.36 4 4 0 0 0 -.41 1c-1.58 1.8-1.18 5 1 7.44a7.29 7.29 0 0 0 4 2.37 16 16 0 0 0 4.56-1.2z" fill="#b5261c"/><path d="m242.77 212-.07 1q-3-.27-6.07-.27a68.5 68.5 0 0 0 -58.3 32.38c-.77.19-1.18.32-1.27.35h-.08a69.46 69.46 0 0 1 59.65-33.68q3.11-.06 6.14.22z" fill="#1d1d1b"/><path d="m236.41 302.9c1.91 2.12 4.53 3.05 6.61 2.54a4.17 4.17 0 0 1 -3.53.8 7.29 7.29 0 0 1 -4-2.37c-2.16-2.4-2.56-5.64-1-7.44a7.21 7.21 0 0 0 1.92 6.47z" fill="#b5261c"/><path d="m231.5 246.86-.16 1-.44-.07a5.41 5.41 0 0 1 .53-.93z" fill="#b5261c"/><path d="m231.43 246.85a5.41 5.41 0 0 0 -.53.93c-36.11-5.83-51.44-2-53.32-1.44.24-.42.49-.83.75-1.24 4.32-1.03 19.93-3.65 53.1 1.75z" fill="#b5261c"/><path d="m221.7 318.38a6.53 6.53 0 0 1 -1.89 6.65 8.56 8.56 0 0 0 -3.56-10.95 6.56 6.56 0 0 1 5.45 4.3z" fill="#ef4230"/><path d="m220.15 318.88a8.54 8.54 0 0 1 -.34 6.15 6.88 6.88 0 0 1 -1.06.88 8.06 8.06 0 0 0 -3.83-11.91 8.41 8.41 0 0 1 1.33.08 8.47 8.47 0 0 1 3.9 4.8z" fill="#ef4230"/><path d="m219.67 319a7.89 7.89 0 0 1 -.92 6.87 8 8 0 0 1 -1.17.69 7.53 7.53 0 0 0 -4-12.47 7 7 0 0 1 1.36-.13 8 8 0 0 1 4.73 5.04z" fill="#ef4230"/><path d="m219.2 319.19a7.48 7.48 0 0 1 -1.62 7.41 10.06 10.06 0 0 1 -1.12.45c-4 1.3-8.18-.48-9.31-4s1.22-7.37 5.23-8.66a7.25 7.25 0 0 1 1.18-.29 7.43 7.43 0 0 1 5.64 5.09z" fill="#ef4230"/><path d="m218.75 325.91a6.88 6.88 0 0 0 1.06-.88 8 8 0 0 1 -4.83 4.36 7.85 7.85 0 0 1 -2.43.38 8.4 8.4 0 0 1 -7.91-5.88 8.29 8.29 0 0 1 5.17-10.5 7.94 7.94 0 0 1 2.43-.38 8.16 8.16 0 0 1 4 1.07 8.41 8.41 0 0 0 -1.33-.08 7.42 7.42 0 0 0 -4.95-.14 7.91 7.91 0 0 0 4.86 15.05 7.37 7.37 0 0 0 3.93-3z" fill="#b5261c"/><path d="m218.43 257.93a3.9 3.9 0 0 1 -.32 1.54 3.4 3.4 0 0 0 -.23-1 2.5 2.5 0 0 0 .05-.55c0-2.78-3.39-5-7.57-5s-7.56 2.26-7.56 5a3.08 3.08 0 0 0 .13.91 3 3 0 0 0 -.13.9v.13a4.08 4.08 0 0 1 -.5-1.93c0-3.06 3.62-5.55 8.06-5.55s8.07 2.49 8.07 5.55z" fill="#b5261c"/><path d="m218.11 259.47a2.26 2.26 0 0 1 0 .26c0 2.79-3.43 5-7.66 5s-7.55-2.18-7.66-4.91c1.15 2.1 4.11 3.61 7.56 3.61 3.65.04 6.79-1.66 7.76-3.96z" fill="#ef4230"/><path d="m217.88 258.48a3.4 3.4 0 0 1 .23 1c-1 2.3-4.08 4-7.75 4-3.45 0-6.41-1.51-7.56-3.61v-.13a3 3 0 0 1 .13-.9c.63 2.35 3.72 4.14 7.43 4.14 3.9.02 7.11-1.98 7.52-4.5z" fill="#ef4230"/><path d="m217.93 257.92a2.5 2.5 0 0 1 -.05.55 3.84 3.84 0 0 0 -.48-.86c-.25-2.36-3.31-4.23-7-4.23-3.89 0-7.06 2-7.06 4.55a3.29 3.29 0 0 0 -.37.89 3.08 3.08 0 0 1 -.13-.91c0-2.78 3.39-5 7.56-5s7.53 2.23 7.53 5.01z" fill="#b5261c"/><path d="m217.88 258.47c-.41 2.52-3.62 4.49-7.52 4.49-3.71 0-6.8-1.79-7.43-4.14a3.29 3.29 0 0 1 .37-.89c0 2.5 3.18 4.53 7.06 4.53s7.07-2 7.07-4.54a1.66 1.66 0 0 0 0-.32 3.84 3.84 0 0 1 .45.87z" fill="#ef4230"/><path d="m217.58 326.6a8 8 0 0 0 1.17-.69 7.37 7.37 0 0 1 -3.92 3 7.91 7.91 0 0 1 -4.83-15.05 7.42 7.42 0 0 1 4.95.14 7 7 0 0 0 -1.36.13 6.42 6.42 0 0 0 -1.32-.13 6.81 6.81 0 0 0 -2.12.34 7.18 7.18 0 0 0 -4.89 6.89 7.68 7.68 0 0 0 .37 2.35 7.28 7.28 0 0 0 9.07 4.85 7 7 0 0 0 2.88-1.83z" fill="#b5261c"/><path d="m217.4 257.61a1.66 1.66 0 0 1 0 .32c0 2.5-3.17 4.54-7.07 4.54s-7.05-2-7.06-4.53c1.1-1.9 3.89-3.25 7.16-3.25 3.11 0 5.76 1.2 6.97 2.92z" fill="#ef4230"/><path d="m216.46 327.05a10.06 10.06 0 0 0 1.12-.45 7 7 0 0 1 -2.91 1.83 7.28 7.28 0 0 1 -9.07-4.85 7.68 7.68 0 0 1 -.37-2.35 7.18 7.18 0 0 1 4.89-6.89 6.81 6.81 0 0 1 2.12-.34 6.42 6.42 0 0 1 1.32.13 7.25 7.25 0 0 0 -1.18.29c-4 1.29-6.36 5.17-5.23 8.66s5.3 5.27 9.31 3.97z" fill="#b5261c"/><path d="m217.4 257.61c-1.21-1.72-3.86-2.92-6.94-2.92-3.27 0-6.06 1.35-7.16 3.25 0-2.51 3.17-4.55 7.06-4.55 3.73-.01 6.79 1.86 7.04 4.22z" fill="#b5261c"/><path d="m201.69 286.76a6.91 6.91 0 0 1 0 7.58 9.31 9.31 0 0 0 -6.44-10 7.83 7.83 0 0 0 -1.77-.31 6.92 6.92 0 0 1 8.21 2.73z" fill="#ef4230"/><path d="m200.24 288.16a9 9 0 0 1 1.41 6.18 6.61 6.61 0 0 1 -.69.89 8.42 8.42 0 0 0 -1.14-6.8 8 8 0 0 0 -7.47-3.88 6.9 6.9 0 0 1 1.09-.54 7.83 7.83 0 0 1 1.77.31 9 9 0 0 1 5.03 3.84z" fill="#ef4230"/><path d="m199.82 288.43a8.42 8.42 0 0 1 1.14 6.8 6.05 6.05 0 0 1 -.8.72 7.72 7.72 0 0 0 -.76-7.25 8 8 0 0 0 -4.47-3.42 6.3 6.3 0 0 0 -1.85-.28 5.76 5.76 0 0 0 -1.71.26 7.25 7.25 0 0 1 .76-.58l.22-.13a8 8 0 0 1 7.47 3.88z" fill="#ef4230"/><path d="m201 295.23a6.61 6.61 0 0 0 .69-.89 6.94 6.94 0 0 1 -3.06 4.94 6.62 6.62 0 0 1 -3.64 1.07 7.66 7.66 0 0 1 -2.14-.32 9.32 9.32 0 0 1 -6.45-10 6.91 6.91 0 0 1 3.07-5 6.7 6.7 0 0 1 4-1.05 6.9 6.9 0 0 0 -1.09.54 6.16 6.16 0 0 0 -2.65.93c-3.21 2.07-3.88 6.74-1.5 10.44s6.91 5 10.12 2.94a6.33 6.33 0 0 0 2.65-3.6z" fill="#b5261c"/><path d="m200.16 296a6.05 6.05 0 0 0 .8-.72 6.33 6.33 0 0 1 -2.64 3.63c-3.21 2.07-7.74.75-10.12-2.94s-1.71-8.37 1.5-10.44a6.16 6.16 0 0 1 2.65-.93l-.22.13a7.25 7.25 0 0 0 -.76.58 5.36 5.36 0 0 0 -1.4.64 6 6 0 0 0 -2.62 4.26 8.32 8.32 0 0 0 5.74 8.91 5.94 5.94 0 0 0 5-.63 5.67 5.67 0 0 0 2.07-2.49z" fill="#b5261c"/><path d="m199.4 288.7a7.72 7.72 0 0 1 .76 7.25 6.28 6.28 0 0 1 -.52.38 6.93 6.93 0 0 1 -8.27-11.07 5.76 5.76 0 0 1 1.71-.26 6.3 6.3 0 0 1 1.85.28 8 8 0 0 1 4.47 3.42z" fill="#ef4230"/><path d="m199.64 296.33a6.28 6.28 0 0 0 .52-.38 5.67 5.67 0 0 1 -2.11 2.49 5.94 5.94 0 0 1 -5 .63 8.32 8.32 0 0 1 -5.74-8.91 6 6 0 0 1 2.69-4.26 5.36 5.36 0 0 1 1.4-.64 6.93 6.93 0 0 0 8.27 11.07z" fill="#b5261c"/><path d="m178.33 245.1c-.26.41-.51.82-.75 1.24l-.2.06-.32-1c.09.02.5-.11 1.27-.3z" fill="#1d1d1b"/><path d="m173.59 254.26q-.21.48-.39 1l-.54-.41.62-.79z" fill="#1d1d1b"/></g></svg>