<svg id="Layer_2" height="512" viewBox="0 0 281.87 309.74" width="512" xmlns="http://www.w3.org/2000/svg" data-name="Layer 2"><g transform="translate(-109.3 -95.89)"><path d="m389.34 366.87c4.77 25-1.26 34.94-1.57 35.44l-.1.15-.17.05a72.54 72.54 0 0 1 -22.13 3.12 114.16 114.16 0 0 1 -26.09-3.11c-25-8.72-65.32-56.38-65.72-56.86l-.33-.39.39-.32c22.48-18.51 21.26-31 20.93-32.86h.08l1.06 1c.25 4-1.12 15.75-21 32.3 3.9 4.56 41.39 48 64.93 56.17.22.05 26.23 6.84 47.43.05.72-1.33 5.65-11.54 1.32-34.52a.61.61 0 0 1 .05.12l.94-.35z" fill="#1d1d1b"/><path d="m389.34 366.87a48.08 48.08 0 0 0 -1.95-4.4c-.87-3.86-2-8-3.41-12.55-1-1.69-26.2-44.3-40.46-59.68-2.67 2.68-19.13 18.29-35.23 12.06l-.88-1.37v-.07c17.22 7.93 35.53-11.49 35.72-11.69l.36-.39.37.39c14.48 15.35 40.72 59.85 41 60.3v.1a153.3 153.3 0 0 1 4.48 17.3z" fill="#1d1d1b"/><path d="m389.32 366.87-.94.35a.61.61 0 0 0 -.05-.12c-.27-1.49-.59-3-1-4.63a48.08 48.08 0 0 1 1.99 4.4z" fill="#1d1d1b"/><path d="m388.33 367.1c4.33 23-.6 33.19-1.32 34.52-21.2 6.79-47.21 0-47.43-.05-23.54-8.21-61-51.61-64.93-56.17 19.92-16.55 21.29-28.27 21-32.3l39.63 38.37-40-40.1-21.59-24.31c2.08-.35 6.83-2.09 11.35-10.52l.24-.46 21.21 25.4 30.79 46.15-7.42-11.63.85-.22c0-.17-4.5-17.12-9.23-26.46l-.1-.21c3.07-.58 15.37-3.37 21.22-11.93 2.74 3.69 18 24.37 30.37 43.16.26 1.31 2.9 15.73-3.27 25.15a17.82 17.82 0 0 1 -11.79 7.75c-2.05-.55-32.53-9.34-59.53-46.59l-.38-.53-9.34 11.71.24.31c.39.51 39.1 50.75 70.19 50.75h.13c.11 0 .71.05 1.65.05 4.05 0 14.47-.76 20.38-8.12 4.18-5.21 5.19-12.63 3-22.1a68.67 68.67 0 0 1 4.08 8.38zm-6.24 28.7c.3-.13 7.3-3.45 4.55-23.51l-.42-3.07-.56 3c0 .14-2.71 14.33-6.54 17-1 .33-14.62 4.61-41.72 2.51l-4.83-.38 4.66 1.36c.21.06 16.27 4.66 31.43 4.66a49.21 49.21 0 0 0 13.43-1.57z" fill="#9ac5db"/><path d="m387.37 362.47c.37 1.6.69 3.14 1 4.63a68.67 68.67 0 0 0 -4.07-8.41q-.43-1.85-1-3.81c1.56 2.77 2.96 5.33 4.07 7.59z" fill="#b8d8e7"/><path d="m386.64 372.29c2.75 20.06-4.25 23.38-4.55 23.51a49.21 49.21 0 0 1 -13.43 1.62c-15.16 0-31.22-4.6-31.43-4.66l-4.66-1.36 4.83.38c27.1 2.1 40.72-2.18 41.72-2.51 3.83-2.67 6.51-16.86 6.54-17l.56-3zm-4.89 22.57s5.83-2.9 4.25-19.42c-1 4.49-3.31 12.65-6.38 14.7l-.11.06c-.13 0-12.14 4.17-36.74 2.92 8.81 2.03 26.75 5.29 38.98 1.74z" fill="#9ac5db"/><path d="m386 375.44c1.58 16.52-4.25 19.41-4.25 19.42-12.23 3.55-30.17.29-39-1.74 24.6 1.25 36.61-2.88 36.74-2.92l.11-.06c3.09-2.05 5.4-10.21 6.4-14.7z" fill="#dee0e2"/><path d="m384.26 358.69c2.18 9.47 1.17 16.89-3 22.1-5.91 7.36-16.33 8.12-20.38 8.12-.94 0-1.54 0-1.65-.05h-.13c-31.09 0-69.8-50.24-70.19-50.75l-.24-.31 9.33-11.71.38.53c27 37.25 57.48 46 59.53 46.59a17.82 17.82 0 0 0 11.79-7.75c6.17-9.42 3.53-23.84 3.27-25.15.46.7.92 1.4 1.37 2.1.65 4.8 1.37 15.7-3.8 23.59a18.82 18.82 0 0 1 -12.54 8.21h-.11-.11c-.31-.08-31.86-8.25-59.81-46.47l-8 10.07c3.31 4.23 39.83 50.05 69.2 50.05h.12c.18 0 14.27 1 21.22-7.7 4.5-5.61 5.12-14 1.83-24.91.66 1.19 1.31 2.34 1.92 3.44z" fill="#b8d8e7"/><path d="m384 349.92c1.42 4.51 2.54 8.69 3.41 12.55-1.11-2.26-2.51-4.82-4.13-7.59-2.64-4.54-5.85-9.65-9.3-14.89-13.56-20.68-30.71-43.66-31-44l-.43-.59-.39.62c-6.1 9.73-21.45 12.17-21.61 12.2l-.7.1.34.63c.14.26.27.52.41.8 4.28 8.47 8.37 23.32 9.05 25.88l-21.38-33.33c16.1 6.23 32.56-9.38 35.23-12.06 14.26 15.38 39.5 57.99 40.5 59.68z" fill="#b8d8e7"/><path d="m383.24 354.88q.58 2 1 3.81c-.61-1.1-1.26-2.25-2-3.44a.24.24 0 0 0 0-.08z" fill="#b8d8e7"/><path d="m383.24 354.88-1 .29a.24.24 0 0 1 0 .08c-2.29-3.95-5-8.32-8-12.84-.2-1.39-.38-2.26-.41-2.41 3.56 5.23 6.77 10.34 9.41 14.88z" fill="#b8d8e7"/><path d="m382.3 355.25c3.29 10.92 2.67 19.3-1.83 24.91-7 8.67-21 7.71-21.22 7.7h-.12c-29.37 0-65.89-45.82-69.2-50.05l8-10.07c28 38.22 59.5 46.39 59.81 46.47h.11.11a18.82 18.82 0 0 0 12.58-8.21c5.17-7.89 4.45-18.79 3.8-23.59 2.94 4.52 5.66 8.89 7.96 12.84z" fill="#b8d8e7"/><path d="m373.94 340-1 .21s0 0 0 .1c-12.35-18.79-27.63-39.47-30.37-43.16-5.85 8.56-18.15 11.35-21.22 11.93l.1.21c4.73 9.34 9.18 26.29 9.23 26.46l-.85.22-.22-.35c-.68-2.56-4.77-17.41-9.05-25.88-.14-.28-.27-.54-.41-.8l-.34-.63.7-.1c.16 0 15.51-2.47 21.61-12.2l.39-.62.43.59c.29.35 17.44 23.33 31 44.02z" fill="#b8d8e7"/><path d="m373.93 340c0 .15.21 1 .41 2.41-.45-.7-.91-1.4-1.37-2.1 0-.06 0-.09 0-.1z" fill="#b8d8e7"/><g fill="#1d1d1b"><path d="m329.86 336 7.51 11.7-30.79-46.15.17.13c.51.24 1 .46 1.52.65l21.37 33.32c.06.24.1.37.1.38z"/><path d="m295.34 311.37 40 40.1-39.65-38.37a8.91 8.91 0 0 0 -.22-1.52v-.1z"/><path d="m329.64 335.62.22.35h-.12s-.04-.11-.1-.35z"/><path d="m307.39 300.93.88 1.37c-.51-.19-1-.41-1.52-.65l-.17-.13z"/><path d="m307.42 300.86v.07l-.84.55-21.21-25.4.35-.68.23-.19 21.36 25.59z"/><path d="m295.69 313.1-1.06-1 .71-.71.09.11v.1a8.91 8.91 0 0 1 .26 1.5z"/><path d="m295.34 311.37-.71.71h-.08a.44.44 0 0 0 0-.13l-21.95-24.73.1-.09h.17a5.31 5.31 0 0 0 .9-.08z"/><path d="m285.92 275.21-.23.19-.9-.45-.15.29-88.82-106.38.18-.69.32-.27z"/><path d="m285.69 275.4-.35.68-.7-.84.15-.29z"/><path d="m284.64 275.24.7.84-.24.46c-4.52 8.43-9.27 10.17-11.35 10.52l-.82-.93c.71 0 3.35-.37 6.52-3.47l.31.36.76-.65-.37-.43a27.67 27.67 0 0 0 4.07-5.87c.14-.27.28-.54.42-.83z"/></g><path d="m195.82 168.86 88.82 106.38c-.14.29-.28.56-.42.83a27.67 27.67 0 0 1 -4.07 5.87l-89.94-104.94a15.45 15.45 0 0 0 5.61-8.14z" fill="#89642f"/><path d="m280.15 281.94.37.43-.76.65-.31-.36c.23-.22.46-.46.7-.72z" fill="#1d1d1b"/><path d="m190.21 177 89.94 104.91c-.24.26-.47.5-.7.72l-90.06-105c.28-.19.55-.39.82-.63z" fill="#725015"/><path d="m189.39 177.62 90.06 105c-3.17 3.1-5.81 3.44-6.52 3.47l-93.05-104.77a24.88 24.88 0 0 0 9.51-3.7z" fill="#725015"/><path d="m272.93 286.13.82.93a5.31 5.31 0 0 1 -.9.08h-.17v-.5-.5z" fill="#1d1d1b"/><path d="m272.93 286.13h-.18v.5.5l-.1.09-93.94-105.72q.51-.06 1.17-.18z" fill="#1d1d1b"/><path d="m185.46 152.77 11 12.44v.22a18.92 18.92 0 0 1 -.43 2.74l-.45.37.27.32a15.45 15.45 0 0 1 -5.61 8.17l-.33-.38-.76.65.27.32a24.88 24.88 0 0 1 -9.51 3.7l-.59-.67v-.22c4.36-.64 15.05-3.39 16.16-14.88l-11-12.4v-.15c.29-43.9-21.1-54.91-23.48-56-36.61 21.32-49 41.39-50.5 44 .56.69 2.23 2.7 4.81 5.35a2.08 2.08 0 0 0 -.45.44l.81.58a1.4 1.4 0 0 1 .34-.3c7.41 7.5 21.38 19.34 38 22.24a29.79 29.79 0 0 0 7.59 1.68c-28.67.08-51.77-29.27-52.05-29.63l-.2-.26.15-.28c.11-.22 11.76-21.84 51.26-44.8l.2-.12.23.09c.19.08 24.54 10.01 24.27 56.78z" fill="#1d1d1b"/><path d="m195.55 168.54.45-.37-.18.69z" fill="#1d1d1b"/><path d="m184.46 153.15 11 12.4c-1.11 11.49-11.8 14.24-16.16 14.88-.72.11-1.27.16-1.57.18l-8.51-10.36a43 43 0 0 0 11.49-4l-.45-.89a40.8 40.8 0 0 1 -18.83 4.64 31 31 0 0 1 -14.76-5.62c-16.28-16.29-24.66-19.28-28.83-18.91a4.74 4.74 0 0 0 -2.54.9c-2.58-2.65-4.25-4.66-4.81-5.35 1.5-2.59 13.89-22.66 50.5-44 2.39 1.08 23.78 12.09 23.47 55.94zm-5.05 2.76c4.67-40.2-14.43-51.95-14.62-52.06l-.45-.27-.25.46a19.08 19.08 0 0 0 -2 7.56l-31.72 28.77.25.36c9.68 14.32 24.53 17.23 35 17.23a56.79 56.79 0 0 0 8.48-.63l.73-.11a40.26 40.26 0 0 0 4.23-.89l.32-.09z" fill="#9ac5db"/><path d="m189.88 176.65.33.38c-.27.21-.54.41-.82.59l-.27-.32z" fill="#1d1d1b"/><path d="m180.22 165.36.45.89a43 43 0 0 1 -11.49 4l8.51 10.36c.3 0 .85-.07 1.57-.18v.22l-.75.66.17.19c-.74.1-1.19.13-1.22.13h-.25l-9.19-11.19a41.2 41.2 0 0 1 -6.11.52l.09-.96-.59-.05a40.8 40.8 0 0 0 18.81-4.59z" fill="#1d1d1b"/><path d="m179.29 180.65.59.67q-.66.12-1.17.18l-.17-.19z" fill="#1d1d1b"/><path d="m164.79 103.85c.19.11 19.29 11.86 14.62 52.06v.33l-.32.09a40.26 40.26 0 0 1 -4.23.89l-.73.11a56.79 56.79 0 0 1 -8.48.63c-10.49 0-25.34-2.91-35-17.23l-.25-.36 31.72-28.77a19.08 19.08 0 0 1 2-7.56l.25-.46zm13.67 51.61c4-35.8-10.9-48.41-13.73-50.45a17.42 17.42 0 0 0 -1.67 7.38c.17.16.36.36.58.6 3.69 4 15.34 18.91 11.23 43.21 1.77-.3 3.03-.6 3.59-.74zm-4.63.9c4.19-24-7.29-38.74-10.93-42.69-.31-.34-.57-.61-.76-.79l-30.48 27.64c12.47 18.04 33.54 17.12 42.17 15.84z" fill="#b8d8e7"/><path d="m164.73 105c2.83 2 17.78 14.65 13.73 50.45-.56.14-1.82.44-3.59.74 4.13-24.29-7.54-39.19-11.23-43.19-.22-.24-.41-.44-.58-.6a17.42 17.42 0 0 1 1.67-7.4z" fill="#b8d8e7"/><path d="m162 170-.08.95h-.39a29.79 29.79 0 0 1 -7.53-1.65 42 42 0 0 0 7.47.67z" fill="#1d1d1b"/><path d="m161.94 171h-.39z" fill="#1d1d1b"/><path d="m161.43 170a42 42 0 0 1 -7.47-.67 29.67 29.67 0 0 1 -8-4.21c-16.79-16.78-24.74-18.91-28-18.66a4 4 0 0 0 -2 .63c-.24-.24-.48-.48-.7-.72a4.74 4.74 0 0 1 2.54-.9c4.17-.37 12.55 2.62 28.83 18.91a31 31 0 0 0 14.8 5.62z" fill="#b8d8e7"/><path d="m146 165.09a29.67 29.67 0 0 0 8 4.21c-16.58-2.9-30.55-14.74-38-22.24a4 4 0 0 1 2-.63c3.27-.25 11.22 1.88 28 18.66z" fill="#b8d8e7"/><path d="m115.3 146.34c.22.24.46.48.7.72a1.4 1.4 0 0 0 -.34.3l-.81-.58a2.08 2.08 0 0 1 .45-.44z" fill="#1d1d1b"/><path d="m131.66 140.52 30.48-27.64s16.06 11.74 11.69 43.48c0 0-27.38 6.28-42.17-15.84z" fill="none" stroke="#1d1d1b" stroke-miterlimit="10"/></g></svg>