<svg id="Layer_3" height="512" viewBox="0 0 202.32 288.97" width="512" xmlns="http://www.w3.org/2000/svg" data-name="Layer 3"><g transform="translate(-162.75 -95.36)"><path d="m365.07 95.36-.49 1.64c-.17.51-15.55 50.28-21.38 65.59l-.07.15c-.83 1.26-81.13 122.34-111.46 159.93l-1.31-.77c29.84-36.9 109.15-156.43 111.46-159.9 5.23-13.75 18-54.87 20.79-63.73-17.06 9-58.61 42.58-59 42.94-4 3.68-66.41 111.14-99.22 168.06l-1.41-.58c6.82-11.79 94.55-163.9 99.64-168.62 1.86-1.5 44.85-36.26 60.94-43.95z" fill="#1d1d1b"/><path d="m362.61 98.24c-2.75 8.86-15.56 50-20.79 63.73-2.31 3.5-81.62 123-111.46 159.93-4.32-2.52-8.71-4.81-13-6.9 15.55-21.77 36.35-54.95 51-77.18 14.33-22.28 37.34-56.62 50.6-79.22-15.35 21.4-37.3 56.18-51.87 78.4-14.32 22.29-36.34 55-49.85 77.93-4.41-2.12-8.73-4-12.88-5.7 32.81-56.92 95.26-164.38 99.22-168.06.42-.35 41.97-33.92 59.03-42.93z" fill="#54e0f7"/><path d="m319 158.6-101.7 156.4s0 0-.06 0c13.51-23 35.53-55.7 49.85-78 14.57-22.22 36.52-57 51.91-78.4z" fill="#1d1d1b"/><path d="m217.3 315 101.7-156.4c-13.26 22.6-36.27 56.94-50.6 79.22-14.64 22.23-35.44 55.41-51 77.18z" fill="#1d1d1b"/><path d="m258.19 343.08-.08.39a15.11 15.11 0 0 1 -4.44 7l-.33.3-.42-.13c-5.57-1.85-32-10.69-37.12-13.74.23-.34.38-.57.42-.64l.26-.38-.23-.4a1.27 1.27 0 0 0 -.07-.12c1.36 1.54 23.1 9.15 36.78 13.7a14.16 14.16 0 0 0 3.58-5.57c-11.49-11.61-26.14-20.59-40.06-27.3.28-.41.58-.81.88-1.23 4.29 2.09 8.68 4.38 13 6.9l-.38.47 1.18.94.51-.64a129.31 129.31 0 0 1 26.23 20.17z" fill="#1d1d1b"/><path d="m256.54 343.53a14.16 14.16 0 0 1 -3.54 5.57c-13.68-4.55-35.42-12.16-36.78-13.7-3.26-5.57-15-7.93-15.74-8.09-2.17-1.08-27.91-13.78-35.93-20.39.92-2.56 3.36-7.68 6.1-7.07a235.3 235.3 0 0 1 45.87 16.38c13.88 6.71 28.53 15.69 40.02 27.3z" fill="#ffd700"/><g fill="#1d1d1b"><path d="m231.67 322.67-.51.64-1.18-.94.38-.47z"/><path d="m217.36 315c-.3.42-.6.82-.88 1.23l.82-1.26z"/><path d="m217.3 315-.82 1.26c.25-.42.49-.86.76-1.29.02.03.03.03.06.03z"/><path d="m217.24 314.94c-.27.43-.51.87-.76 1.29a235.3 235.3 0 0 0 -45.87-16.38c-2.74-.61-5.18 4.51-6.1 7.07 8 6.61 33.76 19.31 35.93 20.39l-.57-.11-.24.53c-.07.15-.19.36-.36.64-4.56-2.23-28.72-14.29-36.09-20.64l-.4-.33.17-.46c.32-1 3.27-9.62 8-8.56a229.75 229.75 0 0 1 32 10.28c-.13.23-.22.4-.3.52l1.31.75.4-.69c4.15 1.68 8.47 3.58 12.88 5.7z"/><path d="m216.25 335.52.23.4-.26.38c0 .07-.19.3-.42.64a3.43 3.43 0 0 1 -.77-.57l1.15-1a1.27 1.27 0 0 1 .07.15z"/><path d="m216.18 335.4-1.15 1a3.43 3.43 0 0 0 .77.57c-2.69 4-16.77 24.57-27.32 33.21l-.75-.92a1 1 0 0 0 -.09-.33 61.15 61.15 0 0 0 5-4.74c1.78-1.85 3.59-3.89 5.38-6s3.54-4.31 5.21-6.45c2.32-3 4.48-5.95 6.3-8.47 2.58-3.6 4.47-6.38 5.13-7.37-2.8-4.23-11.76-6.45-14-7-.73 1.24-2.46 3.86-4.68 7.08-1.51 2.22-3.26 4.73-5 7.3-1.62 2.34-3.27 4.71-4.85 7l-5 7.16c-1.55 2.18-2.66 3.74-3 4.28l-.41-.05-.93-.64c.19-.3 19.39-27.35 22.57-32.62l.71.35.64-1.34-.15-.07c.67.12 12.36 2.48 15.62 8.05z"/></g><path d="m214.7 335.86c-.66 1-2.55 3.77-5.13 7.37l-3-1.74a18.59 18.59 0 0 0 -6.39-5.33l-4.18-.16c2.22-3.22 3.95-5.84 4.68-7.08 2.26.49 11.22 2.71 14.02 6.94z" fill="#65350f"/><path d="m206.52 341.49 3 1.74c-1.82 2.52-4 5.45-6.3 8.47l-3.22-1.7a24 24 0 0 0 -5.92-6.71h-3.2c1.78-2.57 3.53-5.08 5-7.3l4.16.18a12.86 12.86 0 0 0 6.48 5.32z" fill="#65350f"/><path d="m204.36 309.24-.4.69-1.31-.75c.08-.12.17-.29.3-.52z" fill="#1d1d1b"/><path d="m206.52 341.49a12.86 12.86 0 0 1 -6.39-5.33 18.59 18.59 0 0 1 6.39 5.33z" fill="#1d1d1b"/><path d="m200.05 350 3.22 1.7c-1.67 2.14-3.43 4.34-5.21 6.45l-3.06-1.95c-.4-1.15-2-2.37-2.76-3.15a16.12 16.12 0 0 0 -3.44-2.36l-2.67-.45c1.58-2.25 3.23-4.62 4.85-7h3.2a13.87 13.87 0 0 0 5.87 6.76z" fill="#65350f"/><path d="m200.59 327.38-.64 1.34-.71-.35c.17-.28.29-.49.36-.64l.24-.53.57.11z" fill="#1d1d1b"/><path d="m195 356.2 3.11 1.95c-1.79 2.12-3.6 4.16-5.38 6l-3.48-2.56v-.15c-1.06-2-2.13-3.46-4.49-3.87l-.12.08-3.64-.25 5-7.16 2.67.45c1.19 2.31 3.91 4.31 6.33 5.51z" fill="#65350f"/><path d="m200.05 350a13.87 13.87 0 0 1 -5.92-6.71 24 24 0 0 1 5.92 6.71z" fill="#1d1d1b"/><path d="m189.2 361.6 3.48 2.56a61.15 61.15 0 0 1 -5 4.74c-1.15-3.72-4.94-6.74-9.63-7.22.37-.54 1.48-2.1 3-4.28l3.58.26a16 16 0 0 0 1.91 2.43 5.66 5.66 0 0 0 2.66 1.51z" fill="#65350f"/><path d="m192.19 353.05c.75.78 2.36 2 2.76 3.15-2.37-1.21-5.09-3.24-6.2-5.51a16.12 16.12 0 0 1 3.44 2.36z" fill="#1d1d1b"/><path d="m189.23 361.45v.15a5.66 5.66 0 0 1 -2.67-1.51 16 16 0 0 1 -1.91-2.43l.12-.08c2.33.42 3.4 1.89 4.46 3.87z" fill="#1d1d1b"/><path d="m187.73 369.23a7.86 7.86 0 0 1 .11 3.74c-1.22 5.76-6.62 11-11.17 11s-9.95-5.22-11.18-11 4.18-11.37 11.18-11.37h.93l.28.21s.06-.09.13-.16c4.69.48 8.48 3.5 9.63 7.22l-.1.09z" fill="#ffd700"/><path d="m187.64 368.9a1 1 0 0 1 .09.33l-.19-.24z" fill="#1d1d1b"/><path d="m178 361.68c-.07.07-.1.13-.13.16l-.28-.21z" fill="#1d1d1b"/><path d="m187.73 369.23a7.86 7.86 0 0 1 .11 3.74c-1.22 5.76-6.62 11-11.17 11s-9.95-5.22-11.18-11 4.18-11.37 11.18-11.37h.93l.41.05c4.69.48 8.48 3.5 9.63 7.22a1 1 0 0 1 .09.36z" fill="none" stroke="#000" stroke-linecap="round" stroke-linejoin="round" stroke-width=".75"/></g></svg>