<svg id="Layer_2" height="512" viewBox="0 0 107.7 415.2" width="512" xmlns="http://www.w3.org/2000/svg" data-name="Layer 2"><g transform="translate(-203.6 -42.4)"><path d="m303.19 111.22c5.94 8.68 6.67 25 6.71 26.22-1.92 7.9-4.91 13.17-8 16.68-17.41 9.9-58.75 9.53-69 9.27a16.62 16.62 0 0 0 -2.23-.07 36.26 36.26 0 0 0 -6.95-2.45c-4.15-1-14.27-5.17-18.72-23.43 0-1.18.77-17.54 6.76-26.3.33-.75 7.87-18.38 2.71-28l-.19-.35-7.35 2c1.81-2.54 5.34-9.26 6.48-24.08 3.44 5 16.35 26.85 2.54 60.21-.17.39-4.08 9.66.07 19.27 2.95 6.83 9.21 12 18.6 15.43.36.14 9 3.34 14.16.06 2.19-1.39 3.44-3.73 3.7-7l.52-74.16a3.82 3.82 0 0 0 -1.73-3.23c-1.41-.75-3.47-.33-6.14 1.23l12.32-27.59 12.31 27.59c-2.67-1.56-4.73-2-6.14-1.23a3.85 3.85 0 0 0 -1.73 3.23l.51 74.25c.26 3.22 1.51 5.56 3.7 6.95 5.2 3.28 13.8.08 14.16-.05 9.39-3.41 15.65-8.61 18.6-15.44 4.15-9.61.24-18.88.07-19.27-13.8-33.33-.89-55.26 2.54-60.21 1.15 14.82 4.67 21.54 6.48 24.08l-7.35-2-.19.35c-5.14 9.58 2.41 27.21 2.78 28.04z" fill="#36baaa"/><path d="m302.48 154.94c-.91.52-1.89 1-2.92 1.49a25.25 25.25 0 0 0 2.33-2.31l.09-.05z" fill="#1d1d1b"/><path d="m237.7 164.47c14 .1 45.26-.55 61.84-8a19.66 19.66 0 0 1 -8.36 4.43 36.13 36.13 0 0 0 -7.06 2.5c-12.77 5.94-16.58 11.35-17.53 14.84a6.49 6.49 0 0 0 .51 5.18l.15.15c3.9 2.42 6 5.13 6.26 8.05.28 3.28-1.87 6-2.82 7-2.41-4.22-16.86-28.53-32.99-34.15z" fill="#60ccc9"/><path d="m271 199.21-.87.48-.15-.25s0 0 0 0l.17-.25.08-.1s.18-.16.45-.45z" fill="#1d1d1b"/><path d="m271 199.21-.32-.58c.95-1 3.1-3.76 2.82-7-.26-2.92-2.36-5.63-6.26-8.05l-.15-.15a6.49 6.49 0 0 1 -.51-5.18c1-3.49 4.76-8.9 17.53-14.84a36.13 36.13 0 0 1 7.06-2.5 19.66 19.66 0 0 0 8.36-4.43c1-.47 2-1 2.92-1.49a21.67 21.67 0 0 1 -11.08 6.9 34.54 34.54 0 0 0 -6.87 2.42c-12.37 5.77-16.06 10.88-17 14.16a5.6 5.6 0 0 0 .31 4.32c4.11 2.58 6.34 5.53 6.62 8.76.39 4.45-3.05 7.82-3.54 8.27-5.54 8.48-5.34 12.19-5.33 12.23v242.29l-.2.15.05-.06.14-.14v-242.24h-1c0-.12-.28-3.9 5.36-12.61l.15.25z" fill="#1d1d1b"/><path d="m264.74 221.64.14 1a.52.52 0 0 0 -.25.12v-1.09z" fill="#1d1d1b"/><path d="m264.63 222.75v231.09a0 0 0 0 0 0 0v-231.08z" fill="#1d1d1b"/><path d="m264.63 221.66v1.09-1.1z" fill="#1d1d1b"/><path d="m264.63 212.05v9.61z" fill="#1d1d1b"/><path d="m264.62 222.76v231.09a15.6 15.6 0 0 1 -6.66 2.7c0-6-.47-61.47.15-116.41 1.12-100.14 4.75-115.88 6.51-117.38z" fill="#60ccc9"/><path d="m257.49 457.57a17 17 0 0 0 7.92-3.07 9.5 9.5 0 0 1 -7.1 3.1c-.31 0-.55-.01-.82-.03z" fill="#1d1d1b"/><path d="m264.62 453.89a8.71 8.71 0 0 1 -6.66 2.74v-.08a15.6 15.6 0 0 0 6.66-2.7z" fill="#1d1d1b"/><path d="m258 456.63v.45h-1s0-.18 0-.46h.51z" fill="#1d1d1b"/><path d="m258 456.55v.08h-.49a4.1 4.1 0 0 0 .49-.08z" fill="#1d1d1b"/><path d="m258.11 340.14c-.62 54.94-.2 110.41-.15 116.41a4.1 4.1 0 0 1 -.49.06l-.51-.06c0-6.05-.47-61.5.15-116.42 1.29-115 5.7-118.16 7.51-118.47v1.1c-1.76 1.5-5.39 17.24-6.51 117.38z" fill="#60ccc9"/><path d="m302 154.07-.09.05c3.1-3.51 6.09-8.78 8-16.68 0-1.18-.77-17.54-6.71-26.22-.37-.83-7.92-18.46-2.76-28.09l.19-.35 7.35 2c-1.81-2.54-5.33-9.26-6.48-24.08-3.43 5-16.34 26.88-2.54 60.21.17.39 4.08 9.66-.07 19.27-2.95 6.83-9.21 12-18.6 15.44-.36.13-9 3.33-14.16.05-2.19-1.39-3.44-3.73-3.7-6.95l-.51-74.25a3.85 3.85 0 0 1 1.73-3.23c1.41-.75 3.47-.33 6.14 1.23l-12.32-27.54.3-.68-.91-.41-.22.5.77-1.94.67 1.44 14 31.4-1.45-1c-3.78-2.57-5.64-2.55-6.53-2.08a2.86 2.86 0 0 0 -1.2 2.35l.51 74.2c.23 2.86 1.32 4.94 3.24 6.15 4.77 3 13.19-.11 13.27-.14 9.13-3.32 15.19-8.33 18-14.89 4-9.22.11-18.4.07-18.49-15.93-38.48 3.29-62.07 3.48-62.3l.8-1 .09 1.24c1.32 20.4 7.26 26 7.32 26.05l1.58 1.42-10.13-2.75c-4.56 9.3 2.85 26.61 2.93 26.78 6.26 9.12 6.83 26 6.85 26.74v.07.06c-2 8.24-5.14 13.71-8.4 17.34z" fill="#1d1d1b"/></g><path d="m54.17 1.85-.3.68-.14-.31-.69-.28.22-.5z" fill="#1d1d1b"/><path d="m257 456.55.51.06h-.51z" fill="#1d1d1b" transform="translate(-203.6 -42.4)"/><path d="m256.62 457.6a9.5 9.5 0 0 1 -7.1-3.1 17 17 0 0 0 7.92 3.07c-.27.02-.54.03-.82.03z" fill="#1d1d1b" transform="translate(-203.6 -42.4)"/><path d="m257 456.63a8.69 8.69 0 0 1 -6.65-2.74 15.67 15.67 0 0 0 6.65 2.7z" fill="#1d1d1b" transform="translate(-203.6 -42.4)"/><path d="m250.31 212.05v241.8a0 0 0 0 0 0 0z" fill="#1d1d1b" transform="translate(-203.6 -42.4)"/><path d="m250.3 212.05v241.79a0 0 0 0 1 0 0 8.69 8.69 0 0 0 6.65 2.74v.46h1s0-.18 0-.45a8.71 8.71 0 0 0 6.66-2.74 0 0 0 0 1 0 0v-231.1a.52.52 0 0 1 .25-.12l-.14-1h-.11v-9.61h1v242.27l-.14.14-.05.06a17 17 0 0 1 -7.92 3.07h-.05a17 17 0 0 1 -7.92-3.07l-.05-.06-.14-.14v-242.24z" fill="#1d1d1b" transform="translate(-203.6 -42.4)"/><path d="m233 164.4c17.69 1.9 35.26 31.92 37 35-5.64 8.71-5.37 12.49-5.36 12.61v9.61c-1.81.31-6.22 3.46-7.51 118.47-.62 54.92-.2 110.37-.15 116.42a15.67 15.67 0 0 1 -6.65-2.7v-241.76c0-.46 0-4.36-5.53-12.87l-.08-.1s-3.63-3.31-3.26-7.49c.25-2.92 2.36-5.63 6.25-8.05l.15-.15a6.39 6.39 0 0 0 .51-5.18c-.92-3.29-4.37-8.28-15.37-13.81z" fill="#36baaa" transform="translate(-203.6 -42.4)"/><path d="m232.93 163.39c10.21.26 51.55.63 69-9.27a25.25 25.25 0 0 1 -2.33 2.31c-16.58 7.48-47.83 8.13-61.84 8 16.13 5.62 30.58 29.93 33 34.16-.27.29-.44.44-.45.45l-.08.1-.17.25c-1.77-3.11-19.34-33.13-37-35-.68-.34-1.4-.68-2.14-1l-.12-.05a16.62 16.62 0 0 1 2.13.05z" fill="#60ccc9" transform="translate(-203.6 -42.4)"/><path d="m230.82 163.37c.74.35 1.46.69 2.14 1h-.12l-2.26-.07v-1h.11z" fill="#1d1d1b" transform="translate(-203.6 -42.4)"/><path d="m234.65 155.66c-9.39-3.4-15.65-8.6-18.6-15.43-4.15-9.61-.24-18.88-.07-19.27 13.81-33.36.9-55.26-2.54-60.21-1.14 14.82-4.67 21.54-6.48 24.08l7.35-2 .19.35c5.16 9.63-2.38 27.26-2.71 28-6 8.76-6.72 25.12-6.76 26.3 4.45 18.26 14.57 22.47 18.72 23.43a36.26 36.26 0 0 1 6.95 2.45h-.11v1l2.26.07h.15c11 5.53 14.49 10.52 15.38 13.81a6.39 6.39 0 0 1 -.51 5.18l-.15.15c-3.89 2.42-6 5.13-6.25 8.05-.37 4.18 3.22 7.46 3.26 7.49l.08.1c5.57 8.51 5.55 12.41 5.53 12.87h-1v242.21l.14.14.05.06-.2-.15v-242.29c0-.08.21-3.79-5.33-12.27-.48-.45-3.93-3.82-3.54-8.27.28-3.23 2.51-6.18 6.63-8.76a5.7 5.7 0 0 0 .3-4.32c-.91-3.28-4.59-8.39-17-14.16a35.19 35.19 0 0 0 -6.87-2.42c-4.33-1-14.9-5.38-19.48-24.24v-.06-.07c0-.72.59-17.62 6.9-26.82 0-.1 7.44-17.4 2.88-26.7l-10.2 2.85 1.61-1.43c.06-.06 6-5.65 7.33-26l.08-1.24.8 1c.19.23 19.41 23.82 3.48 62.29 0 .1-3.9 9.3.08 18.51 2.83 6.56 8.9 11.57 18 14.88.09 0 8.51 3.16 13.28.14 1.92-1.21 3-3.29 3.25-6.18l.5-74.18a2.88 2.88 0 0 0 -1.2-2.34c-.89-.47-2.75-.49-6.52 2.08l-1.46 1 13.79-30.9.69.28.14.31-12.32 27.49c2.67-1.56 4.73-2 6.14-1.23a3.82 3.82 0 0 1 1.71 3.23l-.51 74.21c-.26 3.26-1.51 5.6-3.7 7-5.18 3.27-13.79.07-14.14-.07z" fill="#1d1d1b" transform="translate(-203.6 -42.4)"/></svg>