<?xml version="1.0" standalone="no"?>
<!DOCTYPE svg PUBLIC "-//W3C//DTD SVG 20010904//EN"
 "http://www.w3.org/TR/2001/REC-SVG-20010904/DTD/svg10.dtd">
<svg version="1.0" xmlns="http://www.w3.org/2000/svg"
 width="150.000000pt" height="150.000000pt" viewBox="0 0 150.000000 150.000000"
 preserveAspectRatio="xMidYMid meet">
<metadata>
Created by potrace 1.14, written by Peter Selinger 2001-2017
</metadata>
<g transform="translate(0.000000,150.000000) scale(0.100000,-0.100000)"
fill="#000000" stroke="none">
<path d="M787 1252 c-15 -10 -72 -64 -127 -120 -98 -100 -133 -121 -146 -87
-5 13 -36 15 -190 15 -155 0 -186 -2 -190 -15 -4 -8 -12 -15 -19 -15 -20 0
-27 -58 -32 -262 -6 -269 1 -278 219 -278 110 0 129 3 176 25 76 35 100 33
106 -7 25 -149 26 -153 56 -181 54 -49 96 -32 218 84 90 87 128 105 193 90 24
-6 95 -11 157 -11 192 0 223 31 230 225 6 160 -11 281 -46 318 l-26 27 -163 0
c-136 0 -165 -3 -169 -15 -4 -8 -12 -15 -20 -15 -7 0 -17 -7 -22 -16 -24 -44
-72 21 -72 97 0 14 -3 47 -6 73 -6 38 -12 50 -39 66 -40 25 -52 25 -88 2z m77
-31 c19 -21 21 -11 -35 -186 -10 -33 -19 -63 -19 -67 0 -5 47 -8 105 -8 98 0
105 1 105 20 0 13 7 20 20 20 11 0 20 7 20 15 0 12 16 15 84 15 83 0 84 0 89
-27 7 -38 2 -43 -44 -43 l-39 0 0 -100 0 -100 55 0 c50 0 55 2 55 23 1 20 2
20 11 4 6 -10 22 -23 36 -28 20 -7 23 -13 15 -21 -7 -7 -12 -20 -12 -30 0 -16
-11 -18 -125 -18 -118 0 -125 1 -125 20 0 13 -7 20 -20 20 -16 0 -20 7 -20 32
0 32 -6 27 -158 -125 -86 -86 -164 -157 -173 -157 -49 0 -50 58 -4 180 19 50
35 94 35 96 0 2 -65 4 -144 4 -144 0 -145 0 -165 26 -12 15 -20 39 -19 53 1
15 -1 32 -6 39 -5 9 4 12 35 12 41 0 46 3 216 175 96 97 182 175 192 175 10 0
26 -9 35 -19z m-530 -206 c-4 -8 -1 -21 5 -29 16 -19 3 -26 -46 -26 -43 0 -43
0 -43 -35 l0 -35 55 0 c58 0 62 -4 63 -69 1 -27 28 -61 50 -61 10 0 12 -6 7
-17 -4 -10 -10 -26 -12 -35 -5 -16 -21 -18 -149 -18 l-144 0 0 35 0 35 120 0
120 0 0 30 0 30 -100 0 c-93 0 -100 1 -100 20 0 13 -7 20 -20 20 -18 0 -20 7
-20 70 0 63 2 70 20 70 11 0 20 7 20 15 0 12 17 15 90 15 76 0 88 -2 84 -15z
m156 -20 l0 -35 -60 0 c-57 0 -60 1 -60 25 0 21 5 25 28 25 15 0 34 5 42 10
32 21 50 12 50 -25z m881 5 c16 0 19 -7 19 -55 l0 -55 -65 0 -65 0 0 60 c0 59
1 60 28 60 15 0 34 5 42 10 11 7 16 5 18 -5 2 -8 12 -15 23 -15z m19 -210 c0
-26 -4 -30 -27 -30 -29 1 -48 12 -72 43 -12 16 -9 17 43 17 56 0 56 0 56 -30z
m-900 -50 c0 -5 -9 -10 -20 -10 -13 0 -20 -7 -20 -20 0 -11 -4 -20 -10 -20
-17 0 -11 38 8 49 22 13 42 14 42 1z m900 0 c0 -5 -9 -10 -20 -10 -13 0 -20
-7 -20 -20 0 -11 -6 -20 -14 -20 -16 0 -10 40 8 52 16 11 46 10 46 -2z"/>
<path d="M670 910 l25 -19 -25 -26 -25 -27 39 21 c25 13 44 17 51 11 6 -5 17
-5 25 0 18 11 52 -9 95 -54 22 -24 29 -40 28 -70 0 -25 3 -33 8 -25 5 8 9 28
9 46 0 28 5 33 38 43 41 14 72 37 72 54 0 7 -3 6 -8 -1 -18 -28 -142 -56 -142
-33 0 6 -12 22 -26 35 -21 20 -38 25 -78 25 -40 0 -54 4 -64 20 -7 11 -20 20
-30 20 -14 0 -12 -4 8 -20z"/>
</g>
</svg>
