<svg height="512" viewBox="0 0 64 64" width="512" xmlns="http://www.w3.org/2000/svg"><g id="Color_2"><circle cx="32" cy="32" fill="#68b74a" r="28"/><g><path d="m16.681 17.681h9.191v9.191h-9.191z"/><path d="m38.127 17.681h9.191v9.191h-9.191z"/><path d="m38.127 33v-6.127h-12.254v6.127h-6.128v15.319h6.128v-6.128h12.254v6.128h6.128v-15.319z"/></g><g><path d="m32 5c14.888 0 27 12.112 27 27s-12.112 27-27 27-27-12.112-27-27 12.112-27 27-27m0-5c-17.673 0-32 14.327-32 32s14.327 32 32 32 32-14.327 32-32-14.327-32-32-32z" fill="#eaeaea"/></g></g></svg>